<?xml version="1.0" encoding="UTF-8" standalone="no"?><!-- Generator: Gravit.io --><svg xmlns="http://www.w3.org/2000/svg" xmlns:xlink="http://www.w3.org/1999/xlink" style="isolation:isolate" viewBox="0 0 480 480" width="480pt" height="480pt"><defs><clipPath id="_clipPath_iXuRc6PuiZNWqSaxW7yEydd0zsM1PKZ7"><rect width="480" height="480"/></clipPath></defs><g clip-path="url(#_clipPath_iXuRc6PuiZNWqSaxW7yEydd0zsM1PKZ7)"><path d=" M 40 0 L 40 276.923 L 80 276.923 L 80 36.923 L 440 36.923 L 440 443.077 L 80 443.077 L 80 387.692 L 40 387.692 L 40 480 L 480 480 L 480 0 L 40 0 Z  M 180 92.308 C 163.936 92.29 149.421 101.15 143.148 114.801 C 136.874 128.452 140.062 144.243 151.24 154.892 C 132.84 164.363 120 182.4 120 203.077 L 160 203.077 C 160 192.628 168.68 184.615 180 184.615 C 191.32 184.615 200 192.628 200 203.077 L 240 203.077 C 240 182.382 227.26 164.345 208.74 154.892 C 219.916 144.245 223.104 128.459 216.836 114.809 C 210.568 101.16 196.06 92.298 180 92.308 Z  M 280 92.308 L 280 129.231 L 400 129.231 L 400 92.308 L 280 92.308 Z  M 280 166.154 L 280 203.077 L 400 203.077 L 400 166.154 L 280 166.154 Z  M 140 240 L 111.72 266.105 L 163.44 313.846 L 0 313.846 L 0 350.769 L 163.44 350.769 L 111.72 398.511 L 140 424.615 L 240 332.308 L 140 240 Z  M 280 276.923 L 280 313.846 L 400 313.846 L 400 276.923 L 280 276.923 Z  M 280 350.769 L 280 387.692 L 400 387.692 L 400 350.769 L 280 350.769 Z " fill="rgb(0,0,0)"/></g></svg>