<?xml version="1.0" encoding="UTF-8" standalone="no"?><!-- Generator: Gravit.io --><svg xmlns="http://www.w3.org/2000/svg" xmlns:xlink="http://www.w3.org/1999/xlink" style="isolation:isolate" viewBox="0 0 480 480" width="480pt" height="480pt"><defs><clipPath id="_clipPath_SPRw6fSKCFwTphIBj4unh0hhuAwMEg7o"><rect width="480" height="480"/></clipPath></defs><g clip-path="url(#_clipPath_SPRw6fSKCFwTphIBj4unh0hhuAwMEg7o)"><g><linearGradient id="_lgradient_0" x1="0.5" y1="-0.01923076817227401" x2="0.49999999999999983" y2="1.0300576356115134" gradientTransform="matrix(471,0,0,471,4,3)" gradientUnits="userSpaceOnUse"><stop offset="0%" stop-opacity="1" style="stop-color:rgb(26,109,255)"/><stop offset="100%" stop-opacity="1" style="stop-color:rgb(200,34,255)"/></linearGradient><path d=" M 239.5 474 C 222.888 474.016 207.202 466.349 197.01 453.231 C 181.956 461.374 164.747 462.442 149.376 456.066 C 134.027 449.718 122.471 436.637 118.064 420.623 C 101.053 422.435 84.74 416.783 72.974 405.017 C 61.208 393.251 55.602 376.947 57.603 360.29 C 41.209 355.399 28.302 343.977 21.934 328.615 C 15.56 313.274 16.633 295.849 24.842 281.406 C 11.563 270.628 4 255.139 4 238.5 C 4 221.861 11.563 206.372 24.751 196.01 C 16.626 180.956 15.549 163.747 21.925 148.376 C 28.269 133.031 41.342 121.476 57.35 117.064 C 55.602 100.044 61.208 83.74 72.974 71.974 C 84.74 60.208 101.026 54.574 117.701 56.603 C 122.592 40.209 134.014 27.302 149.376 20.934 C 164.72 14.577 182.137 15.65 196.585 23.842 C 207.363 10.572 222.852 3 239.5 3 C 256.148 3 271.637 10.572 281.99 23.769 C 297.034 15.626 314.253 14.558 329.624 20.934 C 344.973 27.282 356.529 40.363 360.936 56.377 C 377.911 54.538 394.242 60.217 406.026 71.983 C 417.782 83.718 423.456 100.228 421.397 116.71 C 437.791 121.61 450.698 133.023 457.066 148.385 C 463.436 163.726 462.363 181.15 454.158 195.594 C 467.428 206.363 475 221.852 475 238.5 C 475 255.148 467.428 270.637 454.231 280.99 C 462.374 296.034 463.442 313.244 457.066 328.624 C 450.717 343.968 437.641 355.523 421.632 359.936 C 423.389 376.956 417.783 393.26 406.017 405.026 C 394.291 416.797 377.774 422.473 361.29 420.397 C 356.408 436.791 344.986 449.698 329.624 456.066 C 314.282 462.431 296.861 461.358 282.415 453.158 C 271.628 466.437 256.139 474 239.5 474 Z  M 196.775 434.97 C 202.429 434.975 207.767 437.58 211.249 442.035 C 218.014 450.776 228.443 455.894 239.496 455.898 C 250.548 455.901 260.98 450.79 267.751 442.053 C 273.336 434.84 283.381 432.842 291.301 437.371 C 300.898 442.846 312.489 443.576 322.697 439.347 C 332.906 435.119 340.585 426.408 343.5 415.75 C 345.932 406.972 354.423 401.297 363.464 402.408 C 374.423 403.787 385.405 400.026 393.218 392.218 C 401.026 384.405 404.787 373.423 403.408 362.464 C 402.273 353.415 407.963 344.908 416.759 342.5 C 427.409 339.573 436.112 331.896 440.345 321.695 C 444.578 311.488 443.849 299.897 438.371 290.301 C 433.875 282.376 435.868 272.353 443.053 266.751 C 451.839 259.84 456.885 249.55 456.885 238.5 C 456.885 227.45 451.839 217.16 443.053 210.249 C 435.861 204.651 433.867 194.623 438.371 186.699 C 443.838 177.099 444.563 165.512 440.336 155.305 C 436.102 145.101 427.395 137.423 416.741 134.5 C 407.948 132.084 402.267 123.574 403.408 114.527 C 404.788 103.567 401.024 92.585 393.211 84.775 C 385.398 76.966 374.414 73.207 363.455 74.592 C 354.415 75.697 345.927 70.019 343.5 61.241 C 340.58 50.587 332.899 41.88 322.692 37.655 C 312.485 33.429 300.898 34.158 291.301 39.629 C 283.37 44.12 273.347 42.124 267.742 34.937 C 260.84 26.161 250.541 21.115 239.5 21.115 C 228.459 21.115 218.16 26.161 211.249 34.946 C 205.658 42.15 195.621 44.146 187.699 39.629 C 178.097 34.168 166.513 33.442 156.305 37.664 C 146.102 41.894 138.423 50.598 135.5 61.25 C 133.055 70.022 124.567 75.692 115.527 74.592 C 104.565 73.157 93.562 76.926 85.782 84.782 C 77.974 92.595 74.213 103.577 75.592 114.536 C 76.713 123.585 71.024 132.086 62.232 134.5 C 51.584 137.427 42.884 145.105 38.655 155.305 C 34.422 165.512 35.151 177.103 40.629 186.699 C 45.125 194.628 43.124 204.654 35.928 210.249 C 27.215 217.034 22.121 227.461 22.124 238.504 C 22.128 249.548 27.228 259.972 35.946 266.751 C 43.139 272.349 45.133 282.377 40.629 290.301 C 35.165 299.9 34.442 311.486 38.668 321.69 C 42.895 331.895 51.599 339.576 62.25 342.5 C 71.034 344.918 76.714 353.413 75.592 362.455 C 74.261 373.568 77.974 384.41 85.782 392.218 C 93.59 400.026 104.405 403.694 115.536 402.408 C 124.566 401.332 133.035 406.988 135.5 415.741 C 138.418 426.397 146.098 435.105 156.305 439.333 C 166.512 443.561 178.101 442.833 187.699 437.362 C 190.469 435.798 193.594 434.975 196.775 434.97 Z " fill="url(#_lgradient_0)"/><linearGradient id="_lgradient_1" x1="0.5000210595018781" y1="-0.1365068995666734" x2="0.5000210595018779" y2="1.2040635648891889" gradientTransform="matrix(215.05,0,0,150.382,131.97,166.939)" gradientUnits="userSpaceOnUse"><stop offset="0%" stop-opacity="1" style="stop-color:rgb(109,199,255)"/><stop offset="100%" stop-opacity="1" style="stop-color:rgb(230,171,255)"/></linearGradient><path d=" M 207.227 317.32 C 197.609 317.339 188.38 313.521 181.585 306.713 L 137.501 262.63 C 132.792 258.081 130.903 251.346 132.561 245.012 C 134.219 238.679 139.165 233.732 145.499 232.075 C 151.833 230.417 158.568 232.305 163.116 237.015 L 194.393 268.291 C 201.467 275.363 212.934 275.363 220.008 268.291 L 315.874 172.469 C 320.423 167.76 327.158 165.872 333.492 167.529 C 339.825 169.187 344.772 174.134 346.43 180.467 C 348.087 186.801 346.199 193.536 341.49 198.085 L 232.87 306.713 C 226.075 313.521 216.846 317.339 207.227 317.32 Z " fill="url(#_lgradient_1)"/></g></g></svg>