<?xml version="1.0" encoding="UTF-8" standalone="no"?><!-- Generator: Gravit.io --><svg xmlns="http://www.w3.org/2000/svg" xmlns:xlink="http://www.w3.org/1999/xlink" style="isolation:isolate" viewBox="0 0 480 450" width="480pt" height="450pt"><defs><clipPath id="_clipPath_yZOGprif7PsvHXXp6Wthue5nvSUm6iwh"><rect width="480" height="450"/></clipPath></defs><g clip-path="url(#_clipPath_yZOGprif7PsvHXXp6Wthue5nvSUm6iwh)"><g><linearGradient id="_lgradient_0" x1="0.49999810427375324" y1="-0.05206792811709415" x2="0.499998104273753" y2="1.064602440973008" gradientTransform="matrix(300.925,0,0,145.994,2,151)" gradientUnits="userSpaceOnUse"><stop offset="0%" stop-opacity="1" style="stop-color:rgb(109,199,255)"/><stop offset="100%" stop-opacity="1" style="stop-color:rgb(230,171,255)"/></linearGradient><path d=" M 293.763 208.643 L 189.063 152.15 C 182.94 148.837 175.375 153.081 175.375 159.824 L 175.375 196.625 C 175.375 201.665 171.29 205.75 166.25 205.75 L 11.125 205.75 C 6.085 205.75 2 209.835 2 214.875 L 2 233.125 C 2 238.165 6.085 242.25 11.125 242.25 L 166.25 242.25 C 171.29 242.25 175.375 246.335 175.375 251.375 L 175.375 288.176 C 175.375 294.91 182.94 299.154 189.053 295.85 L 293.754 239.357 C 305.981 232.769 305.981 215.231 293.763 208.643 Z " fill="url(#_lgradient_0)"/><linearGradient id="_lgradient_1" x1="0.4999894583711075" y1="-0.020833333333333343" x2="0.4999894583711073" y2="1.024333333333333" gradientTransform="matrix(432.808,0,0,438,43.692,5)" gradientUnits="userSpaceOnUse"><stop offset="0%" stop-opacity="1" style="stop-color:rgb(26,109,255)"/><stop offset="100%" stop-opacity="1" style="stop-color:rgb(200,34,255)"/></linearGradient><path d=" M 257.5 443 C 155.629 443 65.702 370.922 43.692 271.614 L 61.504 267.654 C 81.689 358.685 164.115 424.75 257.5 424.75 C 368.195 424.75 458.25 334.695 458.25 224 C 458.25 113.305 368.195 23.25 257.5 23.25 C 164.115 23.25 81.689 89.315 61.504 180.346 L 43.692 176.386 C 65.702 77.078 155.629 5 257.5 5 C 378.251 5 476.5 103.249 476.5 224 C 476.5 344.751 378.251 443 257.5 443 Z " fill="url(#_lgradient_1)"/><linearGradient id="_lgradient_2" x1="0.5000127223225872" y1="-0.125" x2="0.500012722322587" y2="1.1292000000000002" gradientTransform="matrix(358.622,0,0,365,81.378,41.5)" gradientUnits="userSpaceOnUse"><stop offset="0%" stop-opacity="1" style="stop-color:rgb(26,109,255)"/><stop offset="100%" stop-opacity="1" style="stop-color:rgb(200,34,255)"/></linearGradient><path d=" M 257.5 406.5 C 175.348 406.5 102.932 351.193 81.387 272.025 L 98.999 267.234 C 118.38 338.482 183.56 388.25 257.5 388.25 C 348.066 388.25 421.75 314.566 421.75 224 C 421.75 133.434 348.066 59.75 257.5 59.75 C 183.56 59.75 118.38 109.518 98.99 180.775 L 81.378 175.984 C 102.932 96.807 175.357 41.5 257.5 41.5 C 358.13 41.5 440 123.37 440 224 C 440 324.63 358.13 406.5 257.5 406.5 Z " fill="url(#_lgradient_2)"/></g></g></svg>