<?xml version="1.0" encoding="UTF-8" standalone="no"?><!-- Generator: Gravit.io --><svg xmlns="http://www.w3.org/2000/svg" xmlns:xlink="http://www.w3.org/1999/xlink" style="isolation:isolate" viewBox="0 0 555 422" width="555pt" height="422pt"><defs><clipPath id="_clipPath_QtQJbSskkrL3N8qYxJ2lRw5ZVmdRbKTR"><rect width="555" height="422"/></clipPath></defs><g clip-path="url(#_clipPath_QtQJbSskkrL3N8qYxJ2lRw5ZVmdRbKTR)"><rect width="555" height="422" style="fill:rgb(0,0,0)" fill-opacity="0"/><g><linearGradient id="_lgradient_4" x1="0.5" y1="-0.020824999999999982" x2="0.4999999999999998" y2="1.1047000000000002" gradientTransform="matrix(550,0,0,379.31,2,2)" gradientUnits="userSpaceOnUse"><stop offset="0%" stop-opacity="1" style="stop-color:rgb(26,109,255)"/><stop offset="100%" stop-opacity="1" style="stop-color:rgb(200,34,255)"/></linearGradient><path d=" M 552 267.517 C 552 226.201 518.791 192.49 477.674 191.674 C 482.931 179.714 485.637 166.789 485.621 153.724 C 485.621 101.436 443.081 58.897 390.793 58.897 C 364.374 58.846 339.144 69.873 321.237 89.298 C 309.213 39.343 264.028 2 210.621 2 C 147.873 2 96.828 53.046 96.828 115.793 C 96.828 128.813 99.084 141.747 103.437 153.961 C 48.665 150.083 2 194.083 2 248.552 C 2 297.938 39.978 338.591 88.265 342.943 C 92.606 365.198 112.084 381.272 134.759 381.31 L 201.138 381.31 L 201.138 362.345 L 134.759 362.345 C 122.743 362.311 112.051 354.714 108.065 343.379 L 182.172 343.379 L 182.172 324.414 L 96.828 324.414 C 54.999 324.414 20.966 290.38 20.966 248.552 C 20.966 206.723 54.999 172.69 96.828 172.69 C 103.604 172.717 110.346 173.652 116.874 175.468 L 138.609 181.423 L 127.675 161.718 C 119.895 147.661 115.807 131.86 115.793 115.793 C 115.793 63.505 158.333 20.966 210.621 20.966 C 262.416 20.966 304.927 63.116 305.401 114.921 L 305.752 153.392 L 323.323 119.178 C 336.235 93.796 362.316 77.825 390.793 77.862 C 432.622 77.862 466.655 111.896 466.655 153.724 C 466.667 169.466 461.749 184.816 452.592 197.62 L 437.78 218.434 L 462.578 212.318 C 499.959 203.177 533.034 231.758 533.034 267.517 C 533.034 298.896 507.516 324.414 476.138 324.414 L 371.828 324.414 L 371.828 343.379 L 464.91 343.379 C 460.916 354.712 450.223 362.306 438.207 362.345 L 352.862 362.345 L 352.862 381.31 L 438.207 381.31 C 461.278 381.31 480.5 364.725 484.71 342.858 C 522.518 338.581 552 306.444 552 267.517 Z " fill="url(#_lgradient_4)"/><linearGradient id="_lgradient_5" x1="0.5" y1="-3.7882715257282182" x2="0.49999999999999895" y2="1.988836134992944" gradientTransform="matrix(103.495,0,0,73.899,225.253,274.051)" gradientUnits="userSpaceOnUse"><stop offset="0%" stop-opacity="1" style="stop-color:rgb(26,109,255)"/><stop offset="100%" stop-opacity="1" style="stop-color:rgb(200,34,255)"/></linearGradient><path d=" M 260.415 328.994 L 238.661 307.241 L 225.253 320.649 L 247.006 342.403 C 250.704 346.101 255.55 347.95 260.405 347.95 C 265.26 347.95 270.106 346.101 273.804 342.403 L 328.747 287.459 L 315.339 274.051 L 260.415 328.994 Z " fill="url(#_lgradient_5)"/><linearGradient id="_lgradient_6" x1="0.5" y1="-0.604125" x2="0.49999999999999895" y2="5.0235" gradientTransform="matrix(75.862,0,0,75.862,134.759,39.931)" gradientUnits="userSpaceOnUse"><stop offset="0%" stop-opacity="1" style="stop-color:rgb(26,109,255)"/><stop offset="100%" stop-opacity="1" style="stop-color:rgb(200,34,255)"/></linearGradient><path d=" M 134.759 115.793 L 153.724 115.793 C 153.724 84.415 179.242 58.897 210.621 58.897 L 210.621 39.931 C 168.792 39.931 134.759 73.965 134.759 115.793 Z " fill="url(#_lgradient_6)"/><linearGradient id="_lgradient_7" x1="0.5" y1="-0.011363636363636465" x2="0.49999999999999983" y2="1.0320454545454547" gradientTransform="matrix(208.621,0,0,208.621,172.69,210.621)" gradientUnits="userSpaceOnUse"><stop offset="0%" stop-opacity="1" style="stop-color:rgb(109,199,255)"/><stop offset="100%" stop-opacity="1" style="stop-color:rgb(230,171,255)"/></linearGradient><path d=" M 277 419.241 C 219.487 419.241 172.69 372.444 172.69 314.931 C 172.69 257.418 219.487 210.621 277 210.621 C 334.513 210.621 381.31 257.418 381.31 314.931 C 381.31 372.444 334.513 419.241 277 419.241 Z  M 277 229.586 C 229.937 229.586 191.655 267.868 191.655 314.931 C 191.655 361.994 229.937 400.276 277 400.276 C 324.063 400.276 362.345 361.994 362.345 314.931 C 362.345 267.868 324.063 229.586 277 229.586 Z " fill="url(#_lgradient_7)"/></g></g></svg>