<?xml version="1.0" encoding="UTF-8" standalone="no"?><!-- Generator: Gravit.io --><svg xmlns="http://www.w3.org/2000/svg" xmlns:xlink="http://www.w3.org/1999/xlink" style="isolation:isolate" viewBox="0 0 480 480" width="480pt" height="480pt"><defs><clipPath id="_clipPath_TvGGOMftCDOGRpwfzlpfp8Ci1AV51Iu3"><rect width="480" height="480"/></clipPath></defs><g clip-path="url(#_clipPath_TvGGOMftCDOGRpwfzlpfp8Ci1AV51Iu3)"><path d=" M 217.313 3.372 C 211.664 3.372 207.043 7.994 207.043 13.642 L 207.043 23.912 C 207.043 26.243 207.844 28.533 209.292 30.33 L 248.121 78.874 L 248.121 95.798 L 63.27 95.798 C 57.57 95.798 53 100.368 53 106.068 L 53 465.502 C 53 471.201 57.57 475.771 63.27 475.771 L 381.625 475.771 C 387.325 475.771 391.895 471.201 391.895 465.502 L 391.895 321.728 L 412.434 321.728 C 418.082 321.728 422.704 317.107 422.704 311.459 L 422.704 249.841 C 422.704 244.193 418.082 239.572 412.434 239.572 L 268.66 239.572 L 268.66 211.454 L 287.279 177.955 L 330.278 177.955 C 331.881 177.961 333.464 177.592 334.899 176.876 L 349.769 169.41 C 355.889 173.468 363.712 173.942 370.278 170.653 L 380.547 165.518 C 389.215 161.336 393.83 151.706 391.659 142.33 C 389.457 132.978 381.086 126.388 371.479 126.443 C 368.235 126.486 365.046 127.284 362.165 128.774 L 351.895 133.909 C 345.349 137.202 341.044 143.724 340.588 151.038 L 327.875 157.416 L 298.668 157.416 L 318.724 121.308 C 319.569 119.787 320.011 118.077 320.008 116.337 L 320.008 106.068 L 361.086 106.068 C 362.69 106.075 364.273 105.705 365.708 104.99 L 380.578 97.524 C 386.698 101.581 394.521 102.055 401.086 98.766 L 411.356 93.631 C 420.024 89.449 424.638 79.819 422.467 70.443 C 420.266 61.091 411.895 54.501 402.288 54.556 C 399.044 54.599 395.855 55.397 392.973 56.887 L 382.704 62.022 C 376.158 65.316 371.853 71.838 371.397 79.151 L 358.683 85.529 L 320.008 85.529 L 320.008 78.874 L 358.837 30.33 C 360.287 28.504 361.079 26.243 361.086 23.912 L 361.086 13.642 C 361.086 7.994 356.465 3.372 350.817 3.372 L 217.313 3.372 Z  M 230.468 23.912 L 337.672 23.912 L 304.809 64.99 L 263.32 64.99 L 230.468 23.912 Z  M 268.66 85.529 L 299.469 85.529 L 299.469 94.073 C 299.269 95.173 299.269 96.3 299.469 97.4 L 299.469 113.647 L 268.66 169.133 L 268.66 85.529 Z  M 114.617 260.111 C 120.266 260.111 124.887 264.732 124.887 270.381 C 124.887 276.029 120.266 280.65 114.617 280.65 C 108.969 280.65 104.348 276.029 104.348 270.381 C 104.348 264.732 108.969 260.111 114.617 260.111 Z  M 145.426 260.111 C 151.074 260.111 155.695 264.732 155.695 270.381 C 155.695 276.029 151.074 280.65 145.426 280.65 C 139.778 280.65 135.156 276.029 135.156 270.381 C 135.156 264.732 139.778 260.111 145.426 260.111 Z  M 176.235 260.111 C 181.883 260.111 186.504 264.732 186.504 270.381 C 186.504 276.029 181.883 280.65 176.235 280.65 C 170.586 280.65 165.965 276.029 165.965 270.381 C 165.965 264.732 170.586 260.111 176.235 260.111 Z  M 207.043 260.111 C 212.691 260.111 217.313 264.732 217.313 270.381 C 217.313 276.029 212.691 280.65 207.043 280.65 C 201.395 280.65 196.774 276.029 196.774 270.381 C 196.774 264.732 201.395 260.111 207.043 260.111 Z  M 268.66 260.111 L 402.164 260.111 L 402.164 301.189 L 268.66 301.189 L 268.66 260.111 Z  M 104.348 290.92 L 155.695 290.92 L 155.695 311.459 L 104.348 311.459 L 104.348 290.92 Z  M 165.965 290.92 L 217.313 290.92 L 217.313 311.459 L 165.965 311.459 L 165.965 290.92 Z  M 124.887 373.076 C 141.852 373.076 155.695 386.919 155.695 403.885 C 155.695 420.85 141.852 434.693 124.887 434.693 C 107.922 434.693 94.078 420.85 94.078 403.885 C 94.078 386.919 107.922 373.076 124.887 373.076 Z " fill="rgb(0,0,0)"/></g></svg>