<?xml version="1.0" encoding="UTF-8" standalone="no"?><!-- Generator: Gravit.io --><svg xmlns="http://www.w3.org/2000/svg" xmlns:xlink="http://www.w3.org/1999/xlink" style="isolation:isolate" viewBox="0 0 480 480" width="480pt" height="480pt"><defs><clipPath id="_clipPath_WUl2Yr1oRsmBc6DgCcymbQ6sriHeXeet"><rect width="480" height="480"/></clipPath></defs><g clip-path="url(#_clipPath_WUl2Yr1oRsmBc6DgCcymbQ6sriHeXeet)"><path d=" M 9.6 0 C 4.32 0 0 4.32 0 9.6 L 0 105.6 L 105.6 105.6 L 105.6 0 L 9.6 0 Z  M 124.8 0 L 124.8 105.6 L 230.4 105.6 L 230.4 0 L 124.8 0 Z  M 249.6 0 L 249.6 105.6 L 355.2 105.6 L 355.2 0 L 249.6 0 Z  M 374.4 0 L 374.4 105.6 L 480 105.6 L 480 9.6 C 480 4.298 475.702 0 470.4 0 L 374.4 0 Z  M 239.098 124.502 C 238.795 124.585 238.497 124.684 238.205 124.8 L 132.595 124.8 C 128.007 125.677 124.717 129.73 124.8 134.4 L 124.8 470.4 C 124.8 475.68 129.12 480 134.4 480 L 470.4 480 C 475.68 480 480 475.68 480 470.4 L 480 366.595 C 480.262 365.309 480.262 363.984 480 362.698 L 480 241.805 C 480.264 240.516 480.264 239.187 480 237.898 L 480 134.4 C 480 129.12 475.68 124.8 470.4 124.8 L 366.902 124.8 C 365.925 124.532 364.909 124.431 363.898 124.502 C 363.595 124.585 363.297 124.684 363.005 124.8 L 242.093 124.8 C 241.115 124.532 240.099 124.431 239.088 124.502 L 239.098 124.502 Z  M 0 124.8 L 0 230.4 L 105.6 230.4 L 105.6 124.8 L 0 124.8 Z  M 144 144 L 230.4 144 L 230.4 230.4 L 144 230.4 L 144 144 Z  M 249.6 144 L 355.2 144 L 355.2 230.4 L 249.6 230.4 L 249.6 144 Z  M 374.4 144 L 460.8 144 L 460.8 230.4 L 374.4 230.4 L 374.4 144 Z  M 0 249.6 L 0 355.2 L 105.6 355.2 L 105.6 249.6 L 0 249.6 Z  M 144 249.6 L 230.4 249.6 L 230.4 355.2 L 144 355.2 L 144 249.6 Z  M 249.6 249.6 L 355.2 249.6 L 355.2 355.2 L 249.6 355.2 L 249.6 249.6 Z  M 374.4 249.6 L 460.8 249.6 L 460.8 355.2 L 374.4 355.2 L 374.4 249.6 Z  M 0 374.4 L 0 470.4 C 0 475.702 4.298 480 9.6 480 L 105.6 480 L 105.6 374.4 L 0 374.4 Z  M 144 374.4 L 230.4 374.4 L 230.4 460.8 L 144 460.8 L 144 374.4 Z  M 249.6 374.4 L 355.2 374.4 L 355.2 460.8 L 249.6 460.8 L 249.6 374.4 Z  M 374.4 374.4 L 460.8 374.4 L 460.8 460.8 L 374.4 460.8 L 374.4 374.4 Z " fill="rgb(0,0,0)"/></g></svg>