<?xml version="1.0" encoding="UTF-8" standalone="no"?><!-- Generator: Gravit.io --><svg xmlns="http://www.w3.org/2000/svg" xmlns:xlink="http://www.w3.org/1999/xlink" style="isolation:isolate" viewBox="0 0 480 336" width="480pt" height="336pt"><defs><clipPath id="_clipPath_rnTM9zI2iHLUvltMCglLE5AOMcWkzFwS"><rect width="480" height="336"/></clipPath></defs><g clip-path="url(#_clipPath_rnTM9zI2iHLUvltMCglLE5AOMcWkzFwS)"><path d=" M 165.215 250.6 C 91.758 229.094 14 186.079 14 157 C 14 116.81 147.873 58 243 58 C 264.293 58 287.326 61.351 310.252 66.919" fill="none" stroke-width="10" stroke="rgb(98,98,98)" stroke-linejoin="miter" stroke-linecap="square" stroke-miterlimit="3"/><path d=" M 326.898 71.355 C 327.119 71.419 327.34 71.483 327.56 71.55" fill="none" stroke-width="10" stroke="rgb(98,98,98)" stroke-linejoin="miter" stroke-linecap="square" stroke-miterlimit="3"/><path d=" M 327.56 71.55 C 400.735 92.768 468 133.889 468 157 C 468 189.114 323.468 264 243 264 C 225.488 264 204.752 260.836 183.014 255.448" fill="none" stroke-width="10" stroke="rgb(98,98,98)" stroke-linejoin="miter" stroke-linecap="square" stroke-miterlimit="3"/><path d=" M 184.599 225.864 C 166.46 210.114 155 186.885 155 161 C 155 113.535 193.535 75 241 75 C 259.555 75 276.745 80.889 290.79 90.912" fill="none" stroke-width="11" stroke="rgb(98,98,98)" stroke-linejoin="miter" stroke-linecap="square" stroke-miterlimit="3"/><path d=" M 303.588 102.047 C 318.102 117.445 327 138.192 327 161 C 327 208.465 288.465 247 241 247 C 225.542 247 211.03 242.913 198.488 235.761" fill="none" stroke-width="11" stroke="rgb(98,98,98)" stroke-linejoin="miter" stroke-linecap="square" stroke-miterlimit="3"/><path d=" M 214.977 187.258 C 208.194 180.57 204 171.271 204 161 C 204 140.579 220.579 124 241 124 C 248.12 124 254.772 126.015 260.404 129.528 L 214.977 187.258 L 214.977 187.258 Z " fill="rgb(81,81,81)"/><path d=" M 229.6 196.179 C 233.184 197.37 237.019 198 241 198 C 261.421 198 278 181.421 278 161 C 278 153.886 275.988 147.238 272.504 141.594 L 229.6 196.179 L 229.6 196.179 Z " fill="rgb(81,81,81)"/><line x1="349" y1="15" x2="108" y2="322" stroke-width="17" stroke="rgb(0,0,0)" stroke-linejoin="miter" stroke-linecap="square" stroke-miterlimit="3"/></g></svg>