<?xml version="1.0" encoding="UTF-8" standalone="no"?><!-- Generator: Gravit.io --><svg xmlns="http://www.w3.org/2000/svg" xmlns:xlink="http://www.w3.org/1999/xlink" style="isolation:isolate" viewBox="0 0 480 480" width="480pt" height="480pt"><defs><clipPath id="_clipPath_B4HwIEcsq0Xgoh1BFzUmcVlSxFaOmCOv"><rect width="480" height="480"/></clipPath></defs><g clip-path="url(#_clipPath_B4HwIEcsq0Xgoh1BFzUmcVlSxFaOmCOv)"><g><path d=" M 0 0 L 480 0 L 480 480 L 0 480 L 0 0 Z " fill="none"/><path d=" M 380 40 L 100 40 C 77.909 40 60 57.909 60 80 L 60 360 C 60 382.091 77.909 400 100 400 L 180 400 L 240 460 L 300 400 L 380 400 C 402 400 420 382 420 360 L 420 80 C 420 58 402 40 380 40 Z  M 260 360 L 220 360 L 220 320 L 260 320 L 260 360 Z  M 301.4 205 L 283.4 223.4 C 269 238 260 250 260 280 L 220 280 L 220 270 C 220 248 229 228 243.4 213.4 L 268.2 188.2 C 275.6 181 280 171 280 160 C 280 138 262 120 240 120 C 218 120 200 138 200 160 L 160 160 C 160 115.8 195.8 80 240 80 C 284.2 80 320 115.8 320 160 C 320 177.6 312.8 193.6 301.4 205 Z " fill="rgb(0,0,0)"/></g></g></svg>