<?xml version="1.0" encoding="UTF-8" standalone="no"?><!-- Generator: Gravit.io --><svg xmlns="http://www.w3.org/2000/svg" xmlns:xlink="http://www.w3.org/1999/xlink" style="isolation:isolate" viewBox="0 0 480 480" width="480pt" height="480pt"><defs><clipPath id="_clipPath_sfAFhMqV1YpKCtQojXe9OvC4Navp4nsV"><rect width="480" height="480"/></clipPath></defs><g clip-path="url(#_clipPath_sfAFhMqV1YpKCtQojXe9OvC4Navp4nsV)"><path d=" M 150 3 C 145.875 3 142.5 6.375 142.5 10.5 C 142.5 14.625 145.875 18 150 18 C 154.125 18 157.5 14.625 157.5 10.5 C 157.5 6.375 154.125 3 150 3 Z  M 247.5 10.5 C 243.375 10.5 240 13.875 240 18 C 240 22.125 243.375 25.5 247.5 25.5 C 251.625 25.5 255 22.125 255 18 C 255 13.875 251.625 10.5 247.5 10.5 Z  M 277.5 10.5 C 273.375 10.5 270 13.875 270 18 C 270 22.125 273.375 25.5 277.5 25.5 C 281.625 25.5 285 22.125 285 18 C 285 13.875 281.625 10.5 277.5 10.5 Z  M 307.5 10.5 C 303.375 10.5 300 13.875 300 18 C 300 22.125 303.375 25.5 307.5 25.5 C 311.625 25.5 315 22.125 315 18 C 315 13.875 311.625 10.5 307.5 10.5 Z  M 337.5 10.5 C 333.375 10.5 330 13.875 330 18 C 330 22.125 333.375 25.5 337.5 25.5 C 341.625 25.5 345 22.125 345 18 C 345 13.875 341.625 10.5 337.5 10.5 Z  M 367.5 18 C 363.375 18 360 21.375 360 25.5 C 360 29.625 363.375 33 367.5 33 C 371.625 33 375 29.625 375 25.5 C 375 21.375 371.625 18 367.5 18 Z  M 172.5 25.5 C 168.375 25.5 165 28.875 165 33 C 165 37.125 168.375 40.5 172.5 40.5 C 176.625 40.5 180 37.125 180 33 C 180 28.875 176.625 25.5 172.5 25.5 Z  M 397.5 33 C 393.375 33 390 36.375 390 40.5 C 390 44.625 393.375 48 397.5 48 C 401.625 48 405 44.625 405 40.5 C 405 36.375 401.625 33 397.5 33 Z  M 202.5 40.5 C 198.375 40.5 195 43.875 195 48 C 195 52.125 198.375 55.5 202.5 55.5 C 206.625 55.5 210 52.125 210 48 C 210 43.875 206.625 40.5 202.5 40.5 Z  M 232.5 48 C 228.375 48 225 51.375 225 55.5 C 225 59.625 228.375 63 232.5 63 C 236.625 63 240 59.625 240 55.5 C 240 51.375 236.625 48 232.5 48 Z  M 262.5 48 C 258.375 48 255 51.375 255 55.5 C 255 59.625 258.375 63 262.5 63 C 266.625 63 270 59.625 270 55.5 C 270 51.375 266.625 48 262.5 48 Z  M 292.5 48 C 288.375 48 285 51.375 285 55.5 C 285 59.625 288.375 63 292.5 63 C 296.625 63 300 59.625 300 55.5 C 300 51.375 296.625 48 292.5 48 Z  M 322.5 48 C 318.375 48 315 51.375 315 55.5 C 315 59.625 318.375 63 322.5 63 C 326.625 63 330 59.625 330 55.5 C 330 51.375 326.625 48 322.5 48 Z  M 420 55.5 C 415.875 55.5 412.5 58.875 412.5 63 C 412.5 67.125 415.875 70.5 420 70.5 C 424.125 70.5 427.5 67.125 427.5 63 C 427.5 58.875 424.125 55.5 420 55.5 Z  M 360 67.5 L 360 189.225 L 307.5 157.5 L 247.5 193.74 L 187.5 157.5 L 127.5 193.74 L 67.5 157.5 L 0 198.285 L 0 480 L 480 480 L 480 67.5 L 360 67.5 Z  M 375 82.5 L 465 82.5 L 465 120 C 460.875 120 457.5 123.375 457.5 127.5 C 457.5 131.625 460.875 135 465 135 L 465 172.5 C 460.875 172.5 457.5 175.875 457.5 180 C 457.5 184.125 460.875 187.5 465 187.5 L 465 232.5 C 460.875 232.5 457.5 235.875 457.5 240 C 457.5 244.125 460.875 247.5 465 247.5 L 465 285 C 460.875 285 457.5 288.375 457.5 292.5 C 457.5 296.625 460.875 300 465 300 L 465 345 C 460.875 345 457.5 348.375 457.5 352.5 C 457.5 356.625 460.875 360 465 360 L 465 405 C 460.875 405 457.5 408.375 457.5 412.5 C 457.5 416.625 460.875 420 465 420 L 465 465 L 15 465 L 15 206.715 L 67.5 175.02 L 127.5 211.26 L 187.5 175.02 L 247.5 211.26 L 307.5 175.02 L 375 215.775 L 375 82.5 Z  M 405 120 C 400.875 120 397.5 123.375 397.5 127.5 C 397.5 131.625 400.875 135 405 135 C 409.125 135 412.5 131.625 412.5 127.5 C 412.5 123.375 409.125 120 405 120 Z  M 435 120 C 430.875 120 427.5 123.375 427.5 127.5 C 427.5 131.625 430.875 135 435 135 C 439.125 135 442.5 131.625 442.5 127.5 C 442.5 123.375 439.125 120 435 120 Z  M 405 172.5 C 400.875 172.5 397.5 175.875 397.5 180 C 397.5 184.125 400.875 187.5 405 187.5 C 409.125 187.5 412.5 184.125 412.5 180 C 412.5 175.875 409.125 172.5 405 172.5 Z  M 435 172.5 C 430.875 172.5 427.5 175.875 427.5 180 C 427.5 184.125 430.875 187.5 435 187.5 C 439.125 187.5 442.5 184.125 442.5 180 C 442.5 175.875 439.125 172.5 435 172.5 Z  M 127.5 225 C 123.375 225 120 228.375 120 232.5 C 120 236.625 123.375 240 127.5 240 C 131.625 240 135 236.625 135 232.5 C 135 228.375 131.625 225 127.5 225 Z  M 247.5 225 C 243.375 225 240 228.375 240 232.5 C 240 236.625 243.375 240 247.5 240 C 251.625 240 255 236.625 255 232.5 C 255 228.375 251.625 225 247.5 225 Z  M 367.5 225 C 363.375 225 360 228.375 360 232.5 C 360 236.625 363.375 240 367.5 240 C 371.625 240 375 236.625 375 232.5 C 375 228.375 371.625 225 367.5 225 Z  M 405 232.5 C 400.875 232.5 397.5 235.875 397.5 240 C 397.5 244.125 400.875 247.5 405 247.5 C 409.125 247.5 412.5 244.125 412.5 240 C 412.5 235.875 409.125 232.5 405 232.5 Z  M 435 232.5 C 430.875 232.5 427.5 235.875 427.5 240 C 427.5 244.125 430.875 247.5 435 247.5 C 439.125 247.5 442.5 244.125 442.5 240 C 442.5 235.875 439.125 232.5 435 232.5 Z  M 127.5 255 C 123.375 255 120 258.375 120 262.5 C 120 266.625 123.375 270 127.5 270 C 131.625 270 135 266.625 135 262.5 C 135 258.375 131.625 255 127.5 255 Z  M 247.5 255 C 243.375 255 240 258.375 240 262.5 C 240 266.625 243.375 270 247.5 270 C 251.625 270 255 266.625 255 262.5 C 255 258.375 251.625 255 247.5 255 Z  M 367.5 255 C 363.375 255 360 258.375 360 262.5 C 360 266.625 363.375 270 367.5 270 C 371.625 270 375 266.625 375 262.5 C 375 258.375 371.625 255 367.5 255 Z  M 45 262.5 L 45 322.5 L 90 322.5 L 90 262.5 L 45 262.5 Z  M 165 262.5 L 165 322.5 L 210 322.5 L 210 262.5 L 165 262.5 Z  M 285 262.5 L 285 322.5 L 330 322.5 L 330 262.5 L 285 262.5 Z  M 60 277.5 L 75 277.5 L 75 307.5 L 60 307.5 L 60 277.5 Z  M 180 277.5 L 195 277.5 L 195 307.5 L 180 307.5 L 180 277.5 Z  M 300 277.5 L 315 277.5 L 315 307.5 L 300 307.5 L 300 277.5 Z  M 127.5 285 C 123.375 285 120 288.375 120 292.5 C 120 296.625 123.375 300 127.5 300 C 131.625 300 135 296.625 135 292.5 C 135 288.375 131.625 285 127.5 285 Z  M 247.5 285 C 243.375 285 240 288.375 240 292.5 C 240 296.625 243.375 300 247.5 300 C 251.625 300 255 296.625 255 292.5 C 255 288.375 251.625 285 247.5 285 Z  M 367.5 285 C 363.375 285 360 288.375 360 292.5 C 360 296.625 363.375 300 367.5 300 C 371.625 300 375 296.625 375 292.5 C 375 288.375 371.625 285 367.5 285 Z  M 405 285 C 400.875 285 397.5 288.375 397.5 292.5 C 397.5 296.625 400.875 300 405 300 C 409.125 300 412.5 296.625 412.5 292.5 C 412.5 288.375 409.125 285 405 285 Z  M 435 285 C 430.875 285 427.5 288.375 427.5 292.5 C 427.5 296.625 430.875 300 435 300 C 439.125 300 442.5 296.625 442.5 292.5 C 442.5 288.375 439.125 285 435 285 Z  M 127.5 315 C 123.375 315 120 318.375 120 322.5 C 120 326.625 123.375 330 127.5 330 C 131.625 330 135 326.625 135 322.5 C 135 318.375 131.625 315 127.5 315 Z  M 247.5 315 C 243.375 315 240 318.375 240 322.5 C 240 326.625 243.375 330 247.5 330 C 251.625 330 255 326.625 255 322.5 C 255 318.375 251.625 315 247.5 315 Z  M 367.5 315 C 363.375 315 360 318.375 360 322.5 C 360 326.625 363.375 330 367.5 330 C 371.625 330 375 326.625 375 322.5 C 375 318.375 371.625 315 367.5 315 Z  M 127.5 345 C 123.375 345 120 348.375 120 352.5 C 120 356.625 123.375 360 127.5 360 C 131.625 360 135 356.625 135 352.5 C 135 348.375 131.625 345 127.5 345 Z  M 247.5 345 C 243.375 345 240 348.375 240 352.5 C 240 356.625 243.375 360 247.5 360 C 251.625 360 255 356.625 255 352.5 C 255 348.375 251.625 345 247.5 345 Z  M 367.5 345 C 363.375 345 360 348.375 360 352.5 C 360 356.625 363.375 360 367.5 360 C 371.625 360 375 356.625 375 352.5 C 375 348.375 371.625 345 367.5 345 Z  M 405 345 C 400.875 345 397.5 348.375 397.5 352.5 C 397.5 356.625 400.875 360 405 360 C 409.125 360 412.5 356.625 412.5 352.5 C 412.5 348.375 409.125 345 405 345 Z  M 435 345 C 430.875 345 427.5 348.375 427.5 352.5 C 427.5 356.625 430.875 360 435 360 C 439.125 360 442.5 356.625 442.5 352.5 C 442.5 348.375 439.125 345 435 345 Z  M 45 352.5 L 45 412.5 L 90 412.5 L 90 352.5 L 45 352.5 Z  M 165 352.5 L 165 412.5 L 210 412.5 L 210 352.5 L 165 352.5 Z  M 285 352.5 L 285 412.5 L 330 412.5 L 330 352.5 L 285 352.5 Z  M 60 367.5 L 75 367.5 L 75 397.5 L 60 397.5 L 60 367.5 Z  M 180 367.5 L 195 367.5 L 195 397.5 L 180 397.5 L 180 367.5 Z  M 300 367.5 L 315 367.5 L 315 397.5 L 300 397.5 L 300 367.5 Z  M 127.5 375 C 123.375 375 120 378.375 120 382.5 C 120 386.625 123.375 390 127.5 390 C 131.625 390 135 386.625 135 382.5 C 135 378.375 131.625 375 127.5 375 Z  M 247.5 375 C 243.375 375 240 378.375 240 382.5 C 240 386.625 243.375 390 247.5 390 C 251.625 390 255 386.625 255 382.5 C 255 378.375 251.625 375 247.5 375 Z  M 367.5 375 C 363.375 375 360 378.375 360 382.5 C 360 386.625 363.375 390 367.5 390 C 371.625 390 375 386.625 375 382.5 C 375 378.375 371.625 375 367.5 375 Z  M 127.5 405 C 123.375 405 120 408.375 120 412.5 C 120 416.625 123.375 420 127.5 420 C 131.625 420 135 416.625 135 412.5 C 135 408.375 131.625 405 127.5 405 Z  M 247.5 405 C 243.375 405 240 408.375 240 412.5 C 240 416.625 243.375 420 247.5 420 C 251.625 420 255 416.625 255 412.5 C 255 408.375 251.625 405 247.5 405 Z  M 367.5 405 C 363.375 405 360 408.375 360 412.5 C 360 416.625 363.375 420 367.5 420 C 371.625 420 375 416.625 375 412.5 C 375 408.375 371.625 405 367.5 405 Z  M 405 405 C 400.875 405 397.5 408.375 397.5 412.5 C 397.5 416.625 400.875 420 405 420 C 409.125 420 412.5 416.625 412.5 412.5 C 412.5 408.375 409.125 405 405 405 Z  M 435 405 C 430.875 405 427.5 408.375 427.5 412.5 C 427.5 416.625 430.875 420 435 420 C 439.125 420 442.5 416.625 442.5 412.5 C 442.5 408.375 439.125 405 435 405 Z  M 127.5 435 C 123.375 435 120 438.375 120 442.5 C 120 446.625 123.375 450 127.5 450 C 131.625 450 135 446.625 135 442.5 C 135 438.375 131.625 435 127.5 435 Z  M 247.5 435 C 243.375 435 240 438.375 240 442.5 C 240 446.625 243.375 450 247.5 450 C 251.625 450 255 446.625 255 442.5 C 255 438.375 251.625 435 247.5 435 Z  M 367.5 435 C 363.375 435 360 438.375 360 442.5 C 360 446.625 363.375 450 367.5 450 C 371.625 450 375 446.625 375 442.5 C 375 438.375 371.625 435 367.5 435 Z " fill="rgb(0,0,0)"/></g></svg>