<?xml version="1.0" encoding="UTF-8" standalone="no"?><!-- Generator: Gravit.io --><svg xmlns="http://www.w3.org/2000/svg" xmlns:xlink="http://www.w3.org/1999/xlink" style="isolation:isolate" viewBox="0 0 555 492" width="555pt" height="492pt"><defs><clipPath id="_clipPath_3zsFbcM6GAUpjTm5WEgve6qga2d0UwJD"><rect width="555" height="492"/></clipPath></defs><g clip-path="url(#_clipPath_3zsFbcM6GAUpjTm5WEgve6qga2d0UwJD)"><rect width="555" height="492" style="fill:rgb(0,0,0)" fill-opacity="0"/><g><linearGradient id="_lgradient_0" x1="0.5" y1="1.375" x2="0.5000000000000001" y2="-0.4025000000000034" gradientTransform="matrix(465.826,0,0,21.174,44.348,425.478)" gradientUnits="userSpaceOnUse"><stop offset="0%" stop-opacity="1" style="stop-color:rgb(230,171,255)"/><stop offset="100%" stop-opacity="1" style="stop-color:rgb(109,199,255)"/></linearGradient><rect x="44.348" y="425.478" width="465.826" height="21.174" transform="matrix(1,0,0,1,0,0)" fill="url(#_lgradient_0)"/><linearGradient id="_lgradient_1" x1="0.5" y1="1.1875" x2="0.5000000000000001" y2="-0.4385000000000048" gradientTransform="matrix(465.826,0,0,21.174,44.348,277.261)" gradientUnits="userSpaceOnUse"><stop offset="0%" stop-opacity="1" style="stop-color:rgb(230,171,255)"/><stop offset="100%" stop-opacity="1" style="stop-color:rgb(109,199,255)"/></linearGradient><rect x="44.348" y="277.261" width="465.826" height="21.174" transform="matrix(1,0,0,1,0,0)" fill="url(#_lgradient_1)"/><linearGradient id="_lgradient_2" x1="0.5000000000001849" y1="0.005435425925543025" x2="0.5000000000001846" y2="1.001543477262498" gradientTransform="matrix(550.521,0,0,487,2,2)" gradientUnits="userSpaceOnUse"><stop offset="0%" stop-opacity="1" style="stop-color:rgb(26,109,255)"/><stop offset="100%" stop-opacity="1" style="stop-color:rgb(200,34,255)"/></linearGradient><path d=" M 520.761 383.13 L 33.761 383.13 C 16.22 383.13 2 397.35 2 414.891 L 2 457.239 C 2 474.78 16.22 489 33.761 489 L 520.761 489 C 538.302 489 552.521 474.78 552.521 457.239 L 552.521 414.891 C 552.521 397.35 538.302 383.13 520.761 383.13 Z  M 531.348 457.239 C 531.348 463.086 526.608 467.826 520.761 467.826 L 33.761 467.826 C 27.914 467.826 23.174 463.086 23.174 457.239 L 23.174 414.891 C 23.174 409.044 27.914 404.304 33.761 404.304 L 520.761 404.304 C 526.608 404.304 531.348 409.044 531.348 414.891 L 531.348 457.239 Z  M 520.761 234.913 L 33.761 234.913 C 16.22 234.913 2 249.133 2 266.674 L 2 309.022 C 2 326.563 16.22 340.783 33.761 340.783 L 520.761 340.783 C 538.302 340.783 552.521 326.563 552.521 309.022 L 552.521 266.674 C 552.521 249.133 538.302 234.913 520.761 234.913 Z  M 531.348 309.022 C 531.348 314.869 526.608 319.609 520.761 319.609 L 33.761 319.609 C 27.914 319.609 23.174 314.869 23.174 309.022 L 23.174 266.674 C 23.174 260.827 27.914 256.087 33.761 256.087 L 520.761 256.087 C 526.608 256.087 531.348 260.827 531.348 266.674 L 531.348 309.022 Z  M 520.761 86.696 L 372.416 86.696 C 369.208 86.696 366.085 85.097 364.053 82.408 L 318.603 22.528 C 308.819 9.551 293.491 1.944 277.24 2 C 261.005 1.944 245.694 9.548 235.929 22.518 L 190.479 82.44 C 188.497 85.078 185.405 86.65 182.105 86.696 L 33.761 86.696 C 16.25 86.696 2 100.861 2 118.277 L 2 160.72 C 2 178.275 16.206 192.519 33.761 192.565 L 520.761 192.565 C 538.271 192.565 552.521 178.273 552.521 160.72 L 552.521 118.277 C 552.451 100.794 538.244 86.667 520.761 86.696 Z  M 531.348 160.72 C 531.348 166.596 526.594 171.391 520.761 171.391 L 33.761 171.391 C 27.927 171.391 23.174 166.596 23.174 160.72 L 23.174 118.277 C 23.168 115.483 24.287 112.805 26.279 110.847 C 28.271 108.889 30.968 107.816 33.761 107.87 L 182.105 107.87 C 191.898 107.87 201.331 103.148 207.344 95.229 L 252.794 35.317 C 258.573 27.642 267.632 23.142 277.24 23.174 C 286.937 23.174 295.862 27.61 301.738 35.339 L 347.188 95.218 C 353.173 103.129 362.497 107.805 372.416 107.87 L 520.761 107.87 C 526.7 107.87 531.348 112.443 531.348 118.277 L 531.348 160.72 Z " fill="url(#_lgradient_2)"/><linearGradient id="_lgradient_3" x1="0.5" y1="1.0301823010986353" x2="0.5000000000000001" y2="-0.05650126765664676" gradientTransform="matrix(465.826,0,0,87.692,44.348,62.526)" gradientUnits="userSpaceOnUse"><stop offset="0%" stop-opacity="1" style="stop-color:rgb(230,171,255)"/><stop offset="100%" stop-opacity="1" style="stop-color:rgb(109,199,255)"/></linearGradient><path d=" M 277.261 62.526 C 284.079 62.526 290.516 65.84 294.475 71.377 L 332.472 124.597 C 334.462 127.382 337.691 129.044 341.089 129.044 L 510.174 129.044 L 510.174 150.218 L 341.089 150.218 C 330.873 150.218 321.207 145.242 315.257 136.899 L 277.261 83.689 L 239.285 136.899 C 233.314 145.241 223.691 150.199 213.432 150.218 L 44.348 150.218 L 44.348 129.044 L 213.432 129.044 C 216.853 129.036 220.059 127.376 222.039 124.587 L 260.025 71.387 C 264.01 65.833 270.425 62.535 277.261 62.526 Z " fill="url(#_lgradient_3)"/></g></g></svg>