<?xml version="1.0" encoding="UTF-8" standalone="no"?><!-- Generator: Gravit.io --><svg xmlns="http://www.w3.org/2000/svg" xmlns:xlink="http://www.w3.org/1999/xlink" style="isolation:isolate" viewBox="0 0 480 480" width="480pt" height="480pt"><defs><clipPath id="_clipPath_6ZJjEcJfpW16KCjoioI4DuZlcDBug3R0"><rect width="480" height="480"/></clipPath></defs><g clip-path="url(#_clipPath_6ZJjEcJfpW16KCjoioI4DuZlcDBug3R0)"><g><linearGradient id="_lgradient_6" x1="0.5" y1="-0.014423076923076927" x2="0.49999999999999983" y2="1.0035" gradientTransform="matrix(350.769,0,0,480,0,0)" gradientUnits="userSpaceOnUse"><stop offset="0%" stop-opacity="1" style="stop-color:rgb(26,109,255)"/><stop offset="100%" stop-opacity="1" style="stop-color:rgb(200,34,255)"/></linearGradient><path d=" M 304.615 480 L 46.154 480 C 20.705 480 0 459.295 0 433.846 L 0 46.154 C 0 20.705 20.705 0 46.154 0 L 304.615 0 C 330.065 0 350.769 20.705 350.769 46.154 L 350.769 203.077 L 332.308 203.077 L 332.308 46.154 C 332.308 30.886 319.883 18.462 304.615 18.462 L 46.154 18.462 C 30.886 18.462 18.462 30.886 18.462 46.154 L 18.462 433.846 C 18.462 449.114 30.886 461.538 46.154 461.538 L 304.615 461.538 C 319.883 461.538 332.308 449.114 332.308 433.846 L 332.308 276.923 L 350.769 276.923 L 350.769 433.846 C 350.769 459.295 330.065 480 304.615 480 Z " fill="url(#_lgradient_6)"/><linearGradient id="_lgradient_7" x1="0.5" y1="-0.10795454545454547" x2="0.4999999999999998" y2="1.0950454545454547" gradientTransform="matrix(276.923,0,0,406.154,36.923,36.923)" gradientUnits="userSpaceOnUse"><stop offset="0%" stop-opacity="1" style="stop-color:rgb(26,109,255)"/><stop offset="100%" stop-opacity="1" style="stop-color:rgb(200,34,255)"/></linearGradient><path d=" M 295.385 443.077 L 55.385 443.077 C 45.203 443.077 36.923 434.797 36.923 424.615 L 36.923 55.385 C 36.923 45.203 45.203 36.923 55.385 36.923 L 295.385 36.923 C 305.566 36.923 313.846 45.203 313.846 55.385 L 313.846 203.077 L 295.385 203.077 L 295.385 55.385 L 55.385 55.385 L 55.385 424.615 L 295.385 424.615 L 295.385 276.923 L 313.846 276.923 L 313.846 424.615 C 313.846 434.797 305.566 443.077 295.385 443.077 Z " fill="url(#_lgradient_7)"/><linearGradient id="_lgradient_8" x1="0.5" y1="-1.234375" x2="0.4999999999999994" y2="2.073875" gradientTransform="matrix(55.385,0,0,147.692,73.846,175.385)" gradientUnits="userSpaceOnUse"><stop offset="0%" stop-opacity="1" style="stop-color:rgb(26,109,255)"/><stop offset="100%" stop-opacity="1" style="stop-color:rgb(200,34,255)"/></linearGradient><path d=" M 110.769 269.391 L 110.769 229.071 C 121.801 225.182 129.193 214.774 129.231 203.077 C 129.231 187.809 116.806 175.385 101.538 175.385 C 86.271 175.385 73.846 187.809 73.846 203.077 C 73.846 215.095 81.582 225.24 92.308 229.062 L 92.308 269.391 C 81.276 273.279 73.884 283.688 73.846 295.385 C 73.846 310.652 86.271 323.077 101.538 323.077 C 116.806 323.077 129.231 310.652 129.231 295.385 C 129.193 283.688 121.801 273.279 110.769 269.391 Z  M 101.538 193.846 C 106.636 193.846 110.769 197.979 110.769 203.077 C 110.769 208.175 106.636 212.308 101.538 212.308 C 96.44 212.308 92.308 208.175 92.308 203.077 C 92.308 197.979 96.44 193.846 101.538 193.846 Z  M 101.538 304.615 C 96.44 304.615 92.308 300.483 92.308 295.385 C 92.308 290.287 96.44 286.154 101.538 286.154 C 106.636 286.154 110.769 290.287 110.769 295.385 C 110.769 300.483 106.636 304.615 101.538 304.615 Z " fill="url(#_lgradient_8)"/><linearGradient id="_lgradient_9" x1="0.5" y1="-0.07143979708875725" x2="0.4999999999999998" y2="1.0714827060359184" gradientTransform="matrix(276.923,0,0,129.223,203.077,175.386)" gradientUnits="userSpaceOnUse"><stop offset="0%" stop-opacity="1" style="stop-color:rgb(109,199,255)"/><stop offset="100%" stop-opacity="1" style="stop-color:rgb(230,171,255)"/></linearGradient><path d=" M 475.569 232.422 L 384.692 176.935 C 378.083 172.892 369.231 177.231 369.231 184.505 L 369.231 221.538 L 212.308 221.538 C 207.21 221.538 203.077 225.671 203.077 230.769 L 203.077 249.231 C 203.077 254.329 207.21 258.462 212.308 258.462 L 369.231 258.462 L 369.231 295.486 C 369.231 302.76 378.083 307.098 384.692 303.065 L 475.569 247.569 C 481.477 243.969 481.477 236.031 475.569 232.422 Z " fill="url(#_lgradient_9)"/></g></g></svg>