<?xml version="1.0" encoding="UTF-8" standalone="no"?><!-- Generator: Gravit.io --><svg xmlns="http://www.w3.org/2000/svg" xmlns:xlink="http://www.w3.org/1999/xlink" style="isolation:isolate" viewBox="0 0 560 560" width="560pt" height="560pt"><defs><clipPath id="_clipPath_nAdi9953pc3f0WOTjaGrNytVCDPZLN5O"><rect width="560" height="560"/></clipPath></defs><g clip-path="url(#_clipPath_nAdi9953pc3f0WOTjaGrNytVCDPZLN5O)"><g><linearGradient id="_lgradient_6" x1="0.5" y1="-0.012826923076923069" x2="0.49999999999999983" y2="1.0359038461538461" gradientTransform="matrix(547,0,0,547,6,7)" gradientUnits="userSpaceOnUse"><stop offset="0%" stop-opacity="1" style="stop-color:rgb(26,109,255)"/><stop offset="100%" stop-opacity="1" style="stop-color:rgb(200,34,255)"/></linearGradient><path d=" M 279.5 554 C 128.686 554 6 431.314 6 280.5 C 6 129.686 128.686 7 279.5 7 C 430.314 7 553 129.686 553 280.5 C 553 431.314 430.314 554 279.5 554 Z  M 279.5 28.038 C 140.299 28.038 27.038 141.299 27.038 280.5 C 27.038 419.701 140.299 532.962 279.5 532.962 C 418.701 532.962 531.962 419.701 531.962 280.5 C 531.962 141.299 418.701 28.038 279.5 28.038 Z " fill="url(#_lgradient_6)"/><linearGradient id="_lgradient_7" x1="0.5" y1="-0.16667500000000005" x2="0.4999999999999997" y2="1.196675" gradientTransform="matrix(420.769,0,0,420.769,69.115,70.115)" gradientUnits="userSpaceOnUse"><stop offset="0%" stop-opacity="1" style="stop-color:rgb(26,109,255)"/><stop offset="100%" stop-opacity="1" style="stop-color:rgb(200,34,255)"/></linearGradient><path d=" M 279.5 490.885 C 163.494 490.885 69.115 396.506 69.115 280.5 C 69.115 164.494 163.494 70.115 279.5 70.115 C 395.506 70.115 489.885 164.494 489.885 280.5 C 489.885 396.506 395.506 490.885 279.5 490.885 Z  M 279.5 91.154 C 175.097 91.154 90.154 176.097 90.154 280.5 C 90.154 384.903 175.097 469.846 279.5 469.846 C 383.903 469.846 468.846 384.903 468.846 280.5 C 468.846 176.097 383.903 91.154 279.5 91.154 Z " fill="url(#_lgradient_7)"/><linearGradient id="_lgradient_8" x1="0.5" y1="-0.125" x2="0.4999999999999998" y2="1.0839999999999996" gradientTransform="matrix(210.385,0,0,42.077,174.308,175.308)" gradientUnits="userSpaceOnUse"><stop offset="0%" stop-opacity="1" style="stop-color:rgb(109,199,255)"/><stop offset="100%" stop-opacity="1" style="stop-color:rgb(230,171,255)"/></linearGradient><path d=" M 384.692 206.865 C 384.692 212.675 379.983 217.385 374.173 217.385 L 184.827 217.385 C 179.017 217.385 174.308 212.675 174.308 206.865 L 174.308 185.827 C 174.308 180.017 179.017 175.308 184.827 175.308 L 374.173 175.308 C 379.983 175.308 384.692 180.017 384.692 185.827 L 384.692 206.865 Z " fill="url(#_lgradient_8)" style="fill:#e6e6e6;"/><linearGradient id="_lgradient_9" x1="0.5" y1="-0.1667500000000004" x2="0.4999999999999998" y2="1.125" gradientTransform="matrix(210.385,0,0,42.077,174.308,259.462)" gradientUnits="userSpaceOnUse"><stop offset="0%" stop-opacity="1" style="stop-color:rgb(109,199,255)"/><stop offset="100%" stop-opacity="1" style="stop-color:rgb(230,171,255)"/></linearGradient><path d=" M 384.692 291.019 C 384.692 296.829 379.983 301.538 374.173 301.538 L 184.827 301.538 C 179.017 301.538 174.308 296.829 174.308 291.019 L 174.308 269.981 C 174.308 264.171 179.017 259.462 184.827 259.462 L 374.173 259.462 C 379.983 259.462 384.692 264.171 384.692 269.981 L 384.692 291.019 Z " fill="url(#_lgradient_9)" style="fill:#e6e6e6;"/><linearGradient id="_lgradient_10" x1="0.5" y1="-0.25" x2="0.4999999999999998" y2="0.8342500000000008" gradientTransform="matrix(210.385,0,0,42.077,174.308,343.615)" gradientUnits="userSpaceOnUse"><stop offset="0%" stop-opacity="1" style="stop-color:rgb(109,199,255)"/><stop offset="100%" stop-opacity="1" style="stop-color:rgb(230,171,255)"/></linearGradient><path d=" M 384.692 375.173 C 384.692 380.983 379.983 385.692 374.173 385.692 L 184.827 385.692 C 179.017 385.692 174.308 380.983 174.308 375.173 L 174.308 354.135 C 174.308 348.325 179.017 343.615 184.827 343.615 L 374.173 343.615 C 379.983 343.615 384.692 348.325 384.692 354.135 L 384.692 375.173 Z " fill="url(#_lgradient_10)" style="fill:#e6e6e6;"/></g></g></svg>