<?xml version="1.0" encoding="UTF-8" standalone="no"?>
<svg
   xmlns:dc="http://purl.org/dc/elements/1.1/"
   xmlns:cc="http://creativecommons.org/ns#"
   xmlns:rdf="http://www.w3.org/1999/02/22-rdf-syntax-ns#"
   xmlns:svg="http://www.w3.org/2000/svg"
   xmlns="http://www.w3.org/2000/svg"
   id="svg3899"
   version="1.1"
   height="560pt"
   width="560pt"
   viewBox="0 0 560 560"
   style="isolation:isolate">
  <metadata
     id="metadata3903">
    <rdf:RDF>
      <cc:Work
         rdf:about="">
        <dc:format>image/svg+xml</dc:format>
        <dc:type
           rdf:resource="http://purl.org/dc/dcmitype/StillImage" />
        <dc:title></dc:title>
      </cc:Work>
    </rdf:RDF>
  </metadata>
  <defs
     id="defs3858">
    <clipPath
       id="_clipPath_nAdi9953pc3f0WOTjaGrNytVCDPZLN5O">
      <rect
         id="rect3855"
         height="560"
         width="560" />
    </clipPath>
  </defs>
  <g
     id="g3897"
     clip-path="url(#_clipPath_nAdi9953pc3f0WOTjaGrNytVCDPZLN5O)">
    <g
       id="g3895">
      <linearGradient
         gradientUnits="userSpaceOnUse"
         gradientTransform="matrix(547,0,0,547,6,7)"
         y2="1.0359038461538461"
         x2="0.49999999999999983"
         y1="-0.012826923076923069"
         x1="0.5"
         id="_lgradient_6">
        <stop
           id="stop3860"
           style="stop-color:rgb(26,109,255)"
           stop-opacity="1"
           offset="0%" />
        <stop
           id="stop3862"
           style="stop-color:rgb(200,34,255)"
           stop-opacity="1"
           offset="100%" />
      </linearGradient>
      <path
         id="path3865"
         fill="url(#_lgradient_6)"
         d=" M 279.5 554 C 128.686 554 6 431.314 6 280.5 C 6 129.686 128.686 7 279.5 7 C 430.314 7 553 129.686 553 280.5 C 553 431.314 430.314 554 279.5 554 Z  M 279.5 28.038 C 140.299 28.038 27.038 141.299 27.038 280.5 C 27.038 419.701 140.299 532.962 279.5 532.962 C 418.701 532.962 531.962 419.701 531.962 280.5 C 531.962 141.299 418.701 28.038 279.5 28.038 Z " />
      <linearGradient
         gradientUnits="userSpaceOnUse"
         gradientTransform="matrix(420.769,0,0,420.769,69.115,70.115)"
         y2="1.196675"
         x2="0.4999999999999997"
         y1="-0.16667500000000005"
         x1="0.5"
         id="_lgradient_7">
        <stop
           id="stop3867"
           style="stop-color:rgb(26,109,255)"
           stop-opacity="1"
           offset="0%" />
        <stop
           id="stop3869"
           style="stop-color:rgb(200,34,255)"
           stop-opacity="1"
           offset="100%" />
      </linearGradient>
      <path
         id="path3872"
         fill="url(#_lgradient_7)"
         d=" M 279.5 490.885 C 163.494 490.885 69.115 396.506 69.115 280.5 C 69.115 164.494 163.494 70.115 279.5 70.115 C 395.506 70.115 489.885 164.494 489.885 280.5 C 489.885 396.506 395.506 490.885 279.5 490.885 Z  M 279.5 91.154 C 175.097 91.154 90.154 176.097 90.154 280.5 C 90.154 384.903 175.097 469.846 279.5 469.846 C 383.903 469.846 468.846 384.903 468.846 280.5 C 468.846 176.097 383.903 91.154 279.5 91.154 Z " />
      <linearGradient
         gradientUnits="userSpaceOnUse"
         gradientTransform="matrix(210.385,0,0,42.077,174.308,175.308)"
         y2="1.0839999999999996"
         x2="0.4999999999999998"
         y1="-0.125"
         x1="0.5"
         id="_lgradient_8">
        <stop
           id="stop3874"
           style="stop-color:rgb(109,199,255)"
           stop-opacity="1"
           offset="0%" />
        <stop
           id="stop3876"
           style="stop-color:rgb(230,171,255)"
           stop-opacity="1"
           offset="100%" />
      </linearGradient>
      <path
         id="path3879"
         fill="url(#_lgradient_8)"
         d=" M 384.692 206.865 C 384.692 212.675 379.983 217.385 374.173 217.385 L 184.827 217.385 C 179.017 217.385 174.308 212.675 174.308 206.865 L 174.308 185.827 C 174.308 180.017 179.017 175.308 184.827 175.308 L 374.173 175.308 C 379.983 175.308 384.692 180.017 384.692 185.827 L 384.692 206.865 Z " />
      <linearGradient
         gradientUnits="userSpaceOnUse"
         gradientTransform="matrix(210.385,0,0,42.077,174.308,259.462)"
         y2="1.125"
         x2="0.4999999999999998"
         y1="-0.1667500000000004"
         x1="0.5"
         id="_lgradient_9">
        <stop
           id="stop3881"
           style="stop-color:rgb(109,199,255)"
           stop-opacity="1"
           offset="0%" />
        <stop
           id="stop3883"
           style="stop-color:rgb(230,171,255)"
           stop-opacity="1"
           offset="100%" />
      </linearGradient>
      <path
         id="path3886"
         fill="url(#_lgradient_9)"
         d=" M 384.692 291.019 C 384.692 296.829 379.983 301.538 374.173 301.538 L 184.827 301.538 C 179.017 301.538 174.308 296.829 174.308 291.019 L 174.308 269.981 C 174.308 264.171 179.017 259.462 184.827 259.462 L 374.173 259.462 C 379.983 259.462 384.692 264.171 384.692 269.981 L 384.692 291.019 Z " />
      <linearGradient
         gradientUnits="userSpaceOnUse"
         gradientTransform="matrix(210.385,0,0,42.077,174.308,343.615)"
         y2="0.8342500000000008"
         x2="0.4999999999999998"
         y1="-0.25"
         x1="0.5"
         id="_lgradient_10">
        <stop
           id="stop3888"
           style="stop-color:rgb(109,199,255)"
           stop-opacity="1"
           offset="0%" />
        <stop
           id="stop3890"
           style="stop-color:rgb(230,171,255)"
           stop-opacity="1"
           offset="100%" />
      </linearGradient>
      <path
         id="path3893"
         fill="url(#_lgradient_10)"
         d=" M 384.692 375.173 C 384.692 380.983 379.983 385.692 374.173 385.692 L 184.827 385.692 C 179.017 385.692 174.308 380.983 174.308 375.173 L 174.308 354.135 C 174.308 348.325 179.017 343.615 184.827 343.615 L 374.173 343.615 C 379.983 343.615 384.692 348.325 384.692 354.135 L 384.692 375.173 Z " />
    </g>
  </g>
  <path
     transform="scale(0.74999998)"
     id="path3905"
     d="M 353.28736,625.37989 C 236.57947,616.30371 140.74461,527.00925 123.40885,411.18982 108.99217,314.87265 151.42424,219.2559 232.8877,164.48932 c 39.73284,-26.71175 83.84025,-40.72901 132.50379,-42.10948 53.81736,-1.52666 102.36752,12.38503 146.77439,42.05714 36.17145,24.16931 64.22532,55.42842 84.31095,93.94375 19.93994,38.23597 29.10679,78.77709 27.80097,122.95209 -1.02136,34.55208 -7.75225,64.58413 -21.23329,94.73925 -12.96226,28.99467 -29.24415,52.6352 -52.03528,75.55276 -42.38834,42.62346 -96.54058,68.06102 -156.34256,73.4406 -9.84855,0.88595 -31.87803,1.05336 -41.37931,0.31446 z M 505.04654,512.68966 c 2.99625,-1.51093 4.67084,-3.18506 6.2086,-6.2069 2.01053,-3.95087 2.09367,-4.93523 1.83909,-21.77468 -0.29189,-19.30611 -0.49006,-20.04521 -6.59779,-24.60528 -2.53695,-1.89412 -2.66287,-1.8959 -133.73628,-1.8959 H 241.56322 l -3.09566,2.20788 c -5.59613,3.99126 -6.51644,7.6191 -6.53932,25.77766 -0.018,14.30518 0.18271,16.45066 1.86405,19.92383 1.9277,3.98211 4.8521,6.48505 9.07076,7.76353 1.30809,0.39641 59.91134,0.75631 130.22946,0.79979 l 127.85114,0.0791 4.10289,-2.06897 z m 0,-112.18391 c 2.99625,-1.51093 4.67084,-3.18506 6.2086,-6.2069 2.01053,-3.95087 2.09367,-4.93523 1.83909,-21.77468 -0.29189,-19.30611 -0.49006,-20.04521 -6.59779,-24.60528 -2.53695,-1.89412 -2.66287,-1.8959 -133.73628,-1.8959 H 241.56322 l -3.09566,2.20788 c -5.59613,3.99126 -6.51644,7.6191 -6.53932,25.77766 -0.018,14.30518 0.18271,16.45066 1.86405,19.92383 1.9277,3.98211 4.8521,6.48506 9.07076,7.76353 1.30809,0.39641 59.91134,0.75631 130.22946,0.79979 l 127.85114,0.0791 4.10289,-2.06897 z m 0.88449,-112.43484 c 1.90215,-1.09937 4.07958,-3.54382 5.32411,-5.97701 2.01112,-3.93194 2.09374,-4.90921 1.83909,-21.75363 -0.29189,-19.30612 -0.49006,-20.04522 -6.59779,-24.60529 -2.53695,-1.89412 -2.66287,-1.8959 -133.73628,-1.8959 H 241.56322 l -3.09566,2.20788 c -5.59613,3.99127 -6.51644,7.6191 -6.53932,25.77767 -0.018,14.30517 0.18271,16.45065 1.86405,19.92382 1.92596,3.97853 4.84308,6.47732 9.07076,7.76998 1.30809,0.39995 60.30936,0.65641 131.11396,0.5699 127.40189,-0.15567 128.76898,-0.17657 131.95402,-2.01742 z"
     style="fill:#e6e6e6;stroke-width:0.91954023" />
</svg>
