<?xml version="1.0" encoding="UTF-8" standalone="no"?><!-- Generator: Gravit.io --><svg xmlns="http://www.w3.org/2000/svg" xmlns:xlink="http://www.w3.org/1999/xlink" style="isolation:isolate" viewBox="0 0 480 480" width="480pt" height="480pt"><defs><clipPath id="_clipPath_GIvIMZcSA1adXTCmvrtmM4sE0464x3Ma"><rect width="480" height="480"/></clipPath></defs><g clip-path="url(#_clipPath_GIvIMZcSA1adXTCmvrtmM4sE0464x3Ma)"><g><linearGradient id="_lgradient_0" x1="0.5" y1="-0.16667500000000005" x2="0.4999999999999997" y2="1.196675" gradientTransform="matrix(349,0,0,349,66,67)" gradientUnits="userSpaceOnUse"><stop offset="1.7391304347826086%" stop-opacity="1" style="stop-color:rgb(179,26,255)"/><stop offset="98.69565217391305%" stop-opacity="1" style="stop-color:rgb(111,34,255)"/></linearGradient><circle vector-effect="non-scaling-stroke" cx="240.5" cy="241.5" r="174.5" fill="url(#_lgradient_0)"/><linearGradient id="_lgradient_1" x1="0.5" y1="-0.012826923076923069" x2="0.49999999999999983" y2="1.0359038461538461" gradientTransform="matrix(475,0,0,475,3,3)" gradientUnits="userSpaceOnUse"><stop offset="0%" stop-opacity="1" style="stop-color:rgb(26,109,255)"/><stop offset="100%" stop-opacity="1" style="stop-color:rgb(200,34,255)"/></linearGradient><path d=" M 240.5 478 C 109.537 478 3 371.463 3 240.5 C 3 109.537 109.537 3 240.5 3 C 371.463 3 478 109.537 478 240.5 C 478 371.463 371.463 478 240.5 478 Z  M 240.5 21.269 C 119.622 21.269 21.269 119.622 21.269 240.5 C 21.269 361.378 119.622 459.731 240.5 459.731 C 361.378 459.731 459.731 361.378 459.731 240.5 C 459.731 119.622 361.378 21.269 240.5 21.269 Z " fill="url(#_lgradient_1)"/><linearGradient id="_lgradient_2" x1="0.5" y1="-0.16667500000000005" x2="0.4999999999999997" y2="1.196675" gradientTransform="matrix(365.385,0,0,365.385,57.808,57.808)" gradientUnits="userSpaceOnUse"><stop offset="0%" stop-opacity="1" style="stop-color:rgb(26,109,255)"/><stop offset="100%" stop-opacity="1" style="stop-color:rgb(200,34,255)"/></linearGradient><path d=" M 240.5 423.192 C 139.763 423.192 57.808 341.237 57.808 240.5 C 57.808 139.763 139.763 57.808 240.5 57.808 C 341.237 57.808 423.192 139.763 423.192 240.5 C 423.192 341.237 341.237 423.192 240.5 423.192 Z  M 240.5 76.077 C 149.839 76.077 76.077 149.839 76.077 240.5 C 76.077 331.161 149.839 404.923 240.5 404.923 C 331.161 404.923 404.923 331.161 404.923 240.5 C 404.923 149.839 331.161 76.077 240.5 76.077 Z " fill="url(#_lgradient_2)"/><linearGradient id="_lgradient_3" x1="0.5" y1="-0.125" x2="0.4999999999999998" y2="1.0839999999999996" gradientTransform="matrix(182.692,0,0,36.538,149.154,149.154)" gradientUnits="userSpaceOnUse"><stop offset="0%" stop-opacity="1" style="stop-color:rgb(109,199,255)"/><stop offset="100%" stop-opacity="1" style="stop-color:rgb(230,171,255)"/></linearGradient><path d=" M 331.846 176.558 C 331.846 181.603 327.756 185.692 322.712 185.692 L 158.288 185.692 C 153.244 185.692 149.154 181.603 149.154 176.558 L 149.154 158.288 C 149.154 153.244 153.244 149.154 158.288 149.154 L 322.712 149.154 C 327.756 149.154 331.846 153.244 331.846 158.288 L 331.846 176.558 Z " fill="url(#_lgradient_3)"/><linearGradient id="_lgradient_4" x1="0.5" y1="-0.1667500000000004" x2="0.4999999999999998" y2="1.125" gradientTransform="matrix(182.692,0,0,36.538,149.154,222.231)" gradientUnits="userSpaceOnUse"><stop offset="0%" stop-opacity="1" style="stop-color:rgb(109,199,255)"/><stop offset="100%" stop-opacity="1" style="stop-color:rgb(230,171,255)"/></linearGradient><path d=" M 331.846 249.635 C 331.846 254.68 327.756 258.769 322.712 258.769 L 158.288 258.769 C 153.244 258.769 149.154 254.68 149.154 249.635 L 149.154 231.365 C 149.154 226.32 153.244 222.231 158.288 222.231 L 322.712 222.231 C 327.756 222.231 331.846 226.32 331.846 231.365 L 331.846 249.635 Z " fill="url(#_lgradient_4)"/><linearGradient id="_lgradient_5" x1="0.5" y1="-0.25" x2="0.4999999999999998" y2="0.8342500000000008" gradientTransform="matrix(182.692,0,0,36.538,149.154,295.308)" gradientUnits="userSpaceOnUse"><stop offset="0%" stop-opacity="1" style="stop-color:rgb(109,199,255)"/><stop offset="100%" stop-opacity="1" style="stop-color:rgb(230,171,255)"/></linearGradient><path d=" M 331.846 322.712 C 331.846 327.756 327.756 331.846 322.712 331.846 L 158.288 331.846 C 153.244 331.846 149.154 327.756 149.154 322.712 L 149.154 304.442 C 149.154 299.397 153.244 295.308 158.288 295.308 L 322.712 295.308 C 327.756 295.308 331.846 299.397 331.846 304.442 L 331.846 322.712 Z " fill="url(#_lgradient_5)"/></g></g></svg>