<?xml version="1.0" encoding="UTF-8" standalone="no"?><!-- Generator: Gravit.io --><svg xmlns="http://www.w3.org/2000/svg" xmlns:xlink="http://www.w3.org/1999/xlink" style="isolation:isolate" viewBox="0 0 425 480" width="425pt" height="480pt"><defs><clipPath id="_clipPath_OvOLhACfE4hcPlLhZZVgcN75HOJF89nO"><rect width="425" height="480"/></clipPath></defs><g clip-path="url(#_clipPath_OvOLhACfE4hcPlLhZZVgcN75HOJF89nO)"><linearGradient id="_lgradient_4" x1="0.1464466094067262" y1="0.14644660940672627" x2="0.8535533905932737" y2="0.8535533905932737" gradientTransform="matrix(420.52,0,0,476,2,2)" gradientUnits="userSpaceOnUse"><stop offset="1.7391304347826086%" stop-opacity="1" style="stop-color:rgb(70,70,70)"/><stop offset="100%" stop-opacity="1" style="stop-color:rgb(0,0,0)"/></linearGradient><path d=" M 415.018 77.005 C 344.265 61.475 302.481 39.484 271.993 23.427 C 248.291 11.003 231.183 2 212.26 2 C 193.337 2 176.229 10.993 152.527 23.427 C 122.03 39.484 80.245 61.465 9.502 77.005 L 2 78.649 L 2 86.333 C 2 377.457 206.172 475.123 208.265 476.06 L 212.451 478 L 216.589 475.897 C 218.644 474.837 422.52 367.795 422.52 86.352 L 422.52 78.649 L 415.018 77.005 Z  M 250.489 303.054 L 174.031 303.054 L 191.358 225.105 C 177.216 215.856 170.828 198.416 175.651 182.221 C 180.474 166.026 195.362 154.922 212.26 154.916 C 229.156 154.926 244.041 166.031 248.861 182.225 C 253.681 198.42 247.293 215.857 233.152 225.105 L 250.489 303.054 Z " fill="url(#_lgradient_4)"/></g></svg>