<?xml version="1.0" encoding="UTF-8" standalone="no"?><!-- Generator: Gravit.io --><svg xmlns="http://www.w3.org/2000/svg" xmlns:xlink="http://www.w3.org/1999/xlink" style="isolation:isolate" viewBox="0 0 480 480" width="480pt" height="480pt"><defs><clipPath id="_clipPath_uQbQMhe7Oc1WKN6YBd4ftHTw1BhCNWsa"><rect width="480" height="480"/></clipPath></defs><g clip-path="url(#_clipPath_uQbQMhe7Oc1WKN6YBd4ftHTw1BhCNWsa)"><path d=" M 25.75 0 C 11.57 0 0 13.48 0 30 L 0 450 C 0 466.52 11.57 480 25.75 480 L 454.917 480 C 469.096 480 480.667 466.52 480.667 450 L 480.667 30 C 480.667 13.48 469.096 0 454.917 0 L 25.75 0 Z  M 25.75 20 L 454.917 20 C 459.637 20 463.5 24.5 463.5 30 L 463.5 100 L 17.167 100 L 17.167 30 C 17.167 24.5 21.029 20 25.75 20 Z  M 42.917 40 C 38.176 40 34.333 44.477 34.333 50 L 34.333 70 C 34.333 75.523 38.176 80 42.917 80 C 47.657 80 51.5 75.523 51.5 70 L 51.5 50 C 51.5 44.477 47.657 40 42.917 40 Z  M 85.833 40 C 81.093 40 77.25 44.477 77.25 50 L 77.25 70 C 77.25 75.523 81.093 80 85.833 80 C 90.574 80 94.417 75.523 94.417 70 L 94.417 50 C 94.417 44.477 90.574 40 85.833 40 Z  M 128.75 40 C 124.01 40 120.167 44.477 120.167 50 L 120.167 70 C 120.167 75.523 124.01 80 128.75 80 C 133.49 80 137.333 75.523 137.333 70 L 137.333 50 C 137.333 44.477 133.49 40 128.75 40 Z  M 171.667 40 C 166.926 40 163.083 44.477 163.083 50 L 163.083 70 C 163.083 75.523 166.926 80 171.667 80 C 176.407 80 180.25 75.523 180.25 70 L 180.25 50 C 180.25 44.477 176.407 40 171.667 40 Z  M 214.583 40 C 209.843 40 206 44.477 206 50 L 206 70 C 206 75.523 209.843 80 214.583 80 C 219.324 80 223.167 75.523 223.167 70 L 223.167 50 C 223.167 44.477 219.324 40 214.583 40 Z  M 257.5 40 C 252.76 40 248.917 44.477 248.917 50 L 248.917 70 C 248.917 75.523 252.76 80 257.5 80 C 262.24 80 266.083 75.523 266.083 70 L 266.083 50 C 266.083 44.477 262.24 40 257.5 40 Z  M 300.417 40 C 295.676 40 291.833 44.477 291.833 50 L 291.833 70 C 291.833 75.523 295.676 80 300.417 80 C 305.157 80 309 75.523 309 70 L 309 50 C 309 44.477 305.157 40 300.417 40 Z  M 343.333 40 C 338.593 40 334.75 44.477 334.75 50 L 334.75 70 C 334.75 75.523 338.593 80 343.333 80 C 348.074 80 351.917 75.523 351.917 70 L 351.917 50 C 351.917 44.477 348.074 40 343.333 40 Z  M 386.25 40 C 381.51 40 377.667 44.477 377.667 50 L 377.667 70 C 377.667 75.523 381.51 80 386.25 80 C 390.99 80 394.833 75.523 394.833 70 L 394.833 50 C 394.833 44.477 390.99 40 386.25 40 Z  M 429.167 40 C 424.426 40 420.583 44.477 420.583 50 L 420.583 70 C 420.583 75.523 424.426 80 429.167 80 C 433.907 80 437.75 75.523 437.75 70 L 437.75 50 C 437.75 44.477 433.907 40 429.167 40 Z  M 17.167 120 L 463.5 120 L 463.5 450 C 463.5 455.5 459.637 460 454.917 460 L 25.75 460 C 21.029 460 17.167 455.5 17.167 450 L 17.167 120 Z  M 68.667 161.21 C 59.208 161.21 51.5 170.2 51.5 181.21 L 51.5 241.21 C 51.5 252.23 59.208 261.21 68.667 261.21 L 137.333 261.21 C 146.792 261.21 154.5 252.23 154.5 241.21 L 154.5 181.21 C 154.5 170.2 146.792 161.21 137.333 161.21 L 68.667 161.21 Z  M 206 161.21 C 196.541 161.21 188.833 170.2 188.833 181.21 L 188.833 241.21 C 188.833 252.23 196.541 261.21 206 261.21 L 274.667 261.21 C 284.126 261.21 291.833 252.23 291.833 241.21 L 291.833 181.21 C 291.833 170.2 284.126 161.21 274.667 161.21 L 206 161.21 Z  M 343.333 161.21 C 333.874 161.21 326.167 170.2 326.167 181.21 L 326.167 241.21 C 326.167 252.23 333.874 261.21 343.333 261.21 L 412 261.21 C 421.459 261.21 429.167 252.23 429.167 241.21 L 429.167 181.21 C 429.167 170.2 421.459 161.21 412 161.21 L 343.333 161.21 Z  M 68.667 181.21 L 137.333 181.21 L 137.333 241.21 L 68.667 241.21 L 68.667 181.21 Z  M 206 181.21 L 274.667 181.21 L 274.667 241.21 L 206 241.21 L 206 181.21 Z  M 343.333 181.21 L 412 181.21 L 412 241.21 L 343.333 241.21 L 343.333 181.21 Z  M 68.667 301.21 C 59.208 301.21 51.5 310.2 51.5 321.21 L 51.5 381.21 C 51.5 392.23 59.208 401.21 68.667 401.21 L 137.333 401.21 C 146.792 401.21 154.5 392.23 154.5 381.21 L 154.5 321.21 C 154.5 310.2 146.792 301.21 137.333 301.21 L 68.667 301.21 Z  M 206 301.21 C 196.541 301.21 188.833 310.2 188.833 321.21 L 188.833 381.21 C 188.833 392.23 196.541 401.21 206 401.21 L 274.667 401.21 C 284.126 401.21 291.833 392.23 291.833 381.21 L 291.833 321.21 C 291.833 310.2 284.126 301.21 274.667 301.21 L 206 301.21 Z  M 343.333 301.21 C 333.874 301.21 326.167 310.2 326.167 321.21 L 326.167 381.21 C 326.167 392.23 333.874 401.21 343.333 401.21 L 412 401.21 C 421.459 401.21 429.167 392.23 429.167 381.21 L 429.167 321.21 C 429.167 310.2 421.459 301.21 412 301.21 L 343.333 301.21 Z  M 68.667 321.21 L 137.333 321.21 L 137.333 381.21 L 68.667 381.21 L 68.667 321.21 Z  M 206 321.21 L 274.667 321.21 L 274.667 381.21 L 206 381.21 L 206 321.21 Z  M 343.333 321.21 L 412 321.21 L 412 381.21 L 343.333 381.21 L 343.333 321.21 Z " fill="rgb(0,0,0)"/></g></svg>