<?xml version="1.0" encoding="UTF-8" standalone="no"?><!-- Generator: Gravit.io --><svg xmlns="http://www.w3.org/2000/svg" xmlns:xlink="http://www.w3.org/1999/xlink" style="isolation:isolate" viewBox="0 0 480 480" width="480pt" height="480pt"><defs><clipPath id="_clipPath_xhgbDXQZ4i8RRL41y8JBAtsx6Hmj0V6A"><rect width="480" height="480"/></clipPath></defs><g clip-path="url(#_clipPath_xhgbDXQZ4i8RRL41y8JBAtsx6Hmj0V6A)"><path d=" M 0 0 L 0 460 L 212.68 460 L 210.62 467.25 C 208.62 472.25 211.62 478.25 217.62 479.25 C 219.62 480.25 221.62 480.25 222.62 479.25 L 282.62 463.25 C 284.62 463.25 285.62 462.25 287.62 460.25 L 415.62 332.25 L 418.62 330.25 C 434.62 314.25 434.62 288.25 418.62 272.25 C 410.62 263.25 399.62 260.25 389.62 260.25 C 379.62 260.25 370.62 264.25 362.62 271.25 L 360.62 272.25 L 360 272.87 L 360 126 L 234 0 L 0 0 Z  M 230 24 L 336 130 L 230 130 L 230 24 Z  M 200 170 C 249.706 170 290 210.294 290 260 L 200 260 L 200 170 Z  M 160 210 L 160 300 L 250 300 C 250 349.706 209.706 390 160 390 C 110.294 390 70 349.706 70 300 C 70 250.294 110.294 210 160 210 Z  M 389.63 280.25 C 394.63 280.25 400.63 282.25 404.63 286.25 C 412.63 294.25 412.63 306.25 405.63 314.25 L 376.63 285.25 C 380.63 282.25 384.63 280.25 389.63 280.25 Z  M 361.63 299.25 L 391.63 329.25 L 282.62 438.25 L 252.62 409.25 L 361.62 299.25 L 361.63 299.25 Z  M 242.62 428.25 L 263.62 449.25 L 234.62 457.25 L 242.62 428.25 Z " fill="rgb(0,0,0)"/></g></svg>