<?xml version="1.0" encoding="UTF-8" standalone="no"?><!-- Generator: Gravit.io --><svg xmlns="http://www.w3.org/2000/svg" xmlns:xlink="http://www.w3.org/1999/xlink" style="isolation:isolate" viewBox="0 0 480 480" width="480pt" height="480pt"><defs><clipPath id="_clipPath_EEmh3ehtsFrW2NPBtAfIUtpgVA9qo0iB"><rect width="480" height="480"/></clipPath></defs><g clip-path="url(#_clipPath_EEmh3ehtsFrW2NPBtAfIUtpgVA9qo0iB)"><g><linearGradient id="_lgradient_0" x1="0.5" y1="-0.0625" x2="0.4999999999999998" y2="1.1545000000000005" gradientTransform="matrix(198.423,0,0,36.077,158.231,330.192)" gradientUnits="userSpaceOnUse"><stop offset="0%" stop-opacity="1" style="stop-color:rgb(109,199,255)"/><stop offset="100%" stop-opacity="1" style="stop-color:rgb(230,171,255)"/></linearGradient><path d=" M 347.635 366.269 L 167.25 366.269 C 162.269 366.269 158.231 362.231 158.231 357.25 L 158.231 339.212 C 158.231 334.23 162.269 330.192 167.25 330.192 L 347.635 330.192 C 352.616 330.192 356.654 334.23 356.654 339.212 L 356.654 357.25 C 356.654 362.231 352.616 366.269 347.635 366.269 Z " fill="url(#_lgradient_0)"/><linearGradient id="_lgradient_1" x1="0.5" y1="0" x2="0.49999999999999983" y2="1.0048076923076923" gradientTransform="matrix(378.808,0,0,469,50,5.5)" gradientUnits="userSpaceOnUse"><stop offset="0%" stop-opacity="1" style="stop-color:rgb(26,109,255)"/><stop offset="100%" stop-opacity="1" style="stop-color:rgb(200,34,255)"/></linearGradient><path d=" M 401.75 77.654 L 383.712 77.654 L 383.712 68.635 C 383.712 53.717 371.572 41.577 356.654 41.577 L 247.512 41.577 C 243.318 21.022 225.108 5.5 203.327 5.5 C 181.545 5.5 163.336 21.022 159.142 41.577 L 77.058 41.577 C 62.14 41.577 50 53.717 50 68.635 L 50 393.327 C 50 408.245 62.14 420.385 77.058 420.385 L 86.077 420.385 L 86.077 447.442 C 86.077 462.36 98.217 474.5 113.135 474.5 L 401.75 474.5 C 416.668 474.5 428.808 462.36 428.808 447.442 L 428.808 104.712 C 428.808 89.794 416.668 77.654 401.75 77.654 Z  M 77.058 402.346 C 72.077 402.346 68.038 398.308 68.038 393.327 L 68.038 68.635 C 68.038 63.653 72.077 59.615 77.058 59.615 L 158.231 59.615 L 158.231 77.654 L 113.135 77.654 C 98.217 77.654 86.077 89.794 86.077 104.712 L 86.077 402.346 L 77.058 402.346 Z  M 410.769 447.442 C 410.769 452.423 406.731 456.462 401.75 456.462 L 113.135 456.462 C 108.153 456.462 104.115 452.423 104.115 447.442 L 104.115 104.712 C 104.115 99.73 108.153 95.692 113.135 95.692 L 158.231 95.692 L 158.231 122.75 C 158.231 147.616 178.461 167.846 203.327 167.846 C 228.193 167.846 248.423 147.616 248.423 122.75 L 248.423 113.713 C 248.423 98.795 236.283 86.655 221.365 86.655 C 206.448 86.655 194.308 98.795 194.308 113.713 L 194.308 131.769 L 212.346 131.769 L 212.346 113.713 C 212.346 108.732 216.384 104.694 221.365 104.694 C 226.347 104.694 230.385 108.732 230.385 113.713 L 230.385 122.75 C 230.385 137.668 218.245 149.808 203.327 149.808 C 188.409 149.808 176.269 137.668 176.269 122.75 L 176.269 50.596 C 176.269 35.678 188.409 23.538 203.327 23.538 C 218.245 23.538 230.385 35.678 230.385 50.596 L 230.385 59.615 L 356.654 59.615 C 361.635 59.615 365.673 63.653 365.673 68.635 L 365.673 77.654 L 266.462 77.654 L 266.462 95.692 L 401.75 95.692 C 406.731 95.692 410.769 99.73 410.769 104.712 L 410.769 447.442 Z " fill="url(#_lgradient_1)"/><linearGradient id="_lgradient_2" x1="0.5" y1="-6" x2="0.4999999999999952" y2="20.125" gradientTransform="matrix(90.192,0,0,18.038,266.462,113.731)" gradientUnits="userSpaceOnUse"><stop offset="0%" stop-opacity="1" style="stop-color:rgb(26,109,255)"/><stop offset="100%" stop-opacity="1" style="stop-color:rgb(200,34,255)"/></linearGradient><rect x="266.462" y="113.731" width="90.192" height="18.038" transform="matrix(1,0,0,1,0,0)" fill="url(#_lgradient_2)"/><linearGradient id="_lgradient_3" x1="0.5" y1="-8" x2="0.4999999999999952" y2="18.125" gradientTransform="matrix(90.192,0,0,18.038,266.462,149.808)" gradientUnits="userSpaceOnUse"><stop offset="0%" stop-opacity="1" style="stop-color:rgb(26,109,255)"/><stop offset="100%" stop-opacity="1" style="stop-color:rgb(200,34,255)"/></linearGradient><rect x="266.462" y="149.808" width="90.192" height="18.038" transform="matrix(1,0,0,1,0,0)" fill="url(#_lgradient_3)"/><linearGradient id="_lgradient_4" x1="0.5" y1="-12" x2="0.4999999999999952" y2="14.125" gradientTransform="matrix(198.423,0,0,18.038,158.231,221.962)" gradientUnits="userSpaceOnUse"><stop offset="0%" stop-opacity="1" style="stop-color:rgb(26,109,255)"/><stop offset="100%" stop-opacity="1" style="stop-color:rgb(200,34,255)"/></linearGradient><rect x="158.231" y="221.962" width="198.423" height="18.038" transform="matrix(1,0,0,1,0,0)" fill="url(#_lgradient_4)"/><linearGradient id="_lgradient_5" x1="0.5" y1="-14" x2="0.4999999999999952" y2="12.125" gradientTransform="matrix(198.423,0,0,18.038,158.231,258.038)" gradientUnits="userSpaceOnUse"><stop offset="0%" stop-opacity="1" style="stop-color:rgb(26,109,255)"/><stop offset="100%" stop-opacity="1" style="stop-color:rgb(200,34,255)"/></linearGradient><rect x="158.231" y="258.038" width="198.423" height="18.038" transform="matrix(1,0,0,1,0,0)" fill="url(#_lgradient_5)"/><linearGradient id="_lgradient_6" x1="0.5" y1="-16" x2="0.4999999999999952" y2="10.125" gradientTransform="matrix(198.423,0,0,18.038,158.231,294.115)" gradientUnits="userSpaceOnUse"><stop offset="0%" stop-opacity="1" style="stop-color:rgb(26,109,255)"/><stop offset="100%" stop-opacity="1" style="stop-color:rgb(200,34,255)"/></linearGradient><rect x="158.231" y="294.115" width="198.423" height="18.038" transform="matrix(1,0,0,1,0,0)" fill="url(#_lgradient_6)"/></g></g></svg>