<?xml version="1.0" encoding="UTF-8" standalone="no"?><!-- Generator: Gravit.io --><svg xmlns="http://www.w3.org/2000/svg" xmlns:xlink="http://www.w3.org/1999/xlink" style="isolation:isolate" viewBox="0 0 480 409" width="480pt" height="409pt"><defs><clipPath id="_clipPath_amVWOmBQnkWpNMCCay0Gaa4RGdm5qsTG"><rect width="480" height="409"/></clipPath></defs><g clip-path="url(#_clipPath_amVWOmBQnkWpNMCCay0Gaa4RGdm5qsTG)"><g><linearGradient id="_lgradient_0" x1="0.49999595857016765" y1="-0.005671157316019637" x2="0.4999959585701675" y2="1.0133862217324099" gradientTransform="matrix(473.908,0,0,401,3.154,5)" gradientUnits="userSpaceOnUse"><stop offset="0%" stop-opacity="1" style="stop-color:rgb(26,109,255)"/><stop offset="100%" stop-opacity="1" style="stop-color:rgb(200,34,255)"/></linearGradient><path d=" M 308.913 406 L 221.879 406 C 206.805 406 194.538 393.733 194.538 378.659 L 194.538 323.978 C 194.538 308.904 206.805 296.638 221.879 296.638 L 310.791 296.638 C 339.489 296.638 363.758 276.241 367.222 249.202 C 369.365 233.537 364.566 217.718 354.08 205.885 C 343.7 194.07 328.741 187.291 313.014 187.275 L 167.198 187.275 L 167.198 241.892 C 167.198 248.965 163.261 255.271 156.918 258.352 C 150.687 261.405 143.256 260.6 137.825 256.283 L 17.125 161.429 C 8.267 154.489 3.111 143.847 3.154 132.594 C 3.111 121.341 8.267 110.699 17.125 103.759 L 137.825 8.905 C 143.255 4.585 150.688 3.78 156.918 6.836 C 163.238 9.874 167.241 16.283 167.198 23.295 L 167.198 77.913 L 313.014 77.913 C 401.962 77.913 475.545 150.256 477.04 239.168 C 477.76 282.256 461.045 323.368 429.987 354.955 C 398.089 387.399 353.961 406 308.913 406 Z  M 221.879 314.865 C 216.846 314.865 212.765 318.945 212.765 323.978 L 212.765 378.659 C 212.765 383.693 216.846 387.773 221.879 387.773 L 308.913 387.773 C 349.104 387.773 388.502 371.159 416.991 342.178 C 444.596 314.108 459.451 277.636 458.813 239.468 C 457.491 160.445 392.083 96.14 313.014 96.14 L 148.971 96.14 L 148.971 23.295 L 28.398 118.085 C 23.933 121.585 21.381 126.871 21.381 132.594 C 21.381 138.317 23.933 143.603 28.398 147.103 L 149.098 241.956 L 148.971 169.048 L 313.014 169.048 C 333.939 169.048 353.888 178.089 367.759 193.855 C 381.627 209.662 388.022 230.673 385.312 251.525 C 380.673 287.633 348.63 314.865 310.791 314.865 L 221.879 314.865 Z " fill="url(#_lgradient_0)"/><linearGradient id="_lgradient_1" x1="0.5" y1="-0.00428338857775723" x2="0.49999999999999983" y2="1.0149159389358382" gradientTransform="matrix(369.955,0,0,268.837,61.535,91.595)" gradientUnits="userSpaceOnUse"><stop offset="0%" stop-opacity="1" style="stop-color:rgb(109,199,255)"/><stop offset="100%" stop-opacity="1" style="stop-color:rgb(230,171,255)"/></linearGradient><path d=" M 313.014 123.48 L 121.63 123.48 L 121.63 105.189 C 121.63 99.703 119.115 95.119 114.904 92.895 C 110.931 90.808 106.128 91.237 101.872 94.162 L 69.701 117.693 C 64.617 121.156 61.563 126.899 61.535 133.049 C 61.535 138.9 64.306 144.168 69.017 147.412 L 102.373 171.171 C 104.706 172.775 107.285 173.596 109.791 173.596 C 111.605 173.596 113.382 173.176 115.013 172.311 C 119.215 170.105 121.63 165.612 121.63 159.998 L 121.63 141.707 L 313.014 141.707 C 368.288 141.707 413.263 186.683 413.263 241.956 C 413.263 297.23 368.288 342.205 313.014 342.205 L 230.992 342.205 L 230.992 360.432 L 313.014 360.432 C 378.34 360.432 431.49 307.282 431.49 241.956 C 431.49 176.63 378.34 123.48 313.014 123.48 Z " fill="url(#_lgradient_1)"/></g></g></svg>