<?xml version="1.0" encoding="UTF-8" standalone="no"?><!-- Generator: Gravit.io --><svg xmlns="http://www.w3.org/2000/svg" xmlns:xlink="http://www.w3.org/1999/xlink" style="isolation:isolate" viewBox="0 0 480 560" width="480pt" height="560pt"><defs><clipPath id="_clipPath_6IqKy0ru4BjFZBkZhlx80Ik4V0sdmneA"><rect width="480" height="560"/></clipPath></defs><g clip-path="url(#_clipPath_6IqKy0ru4BjFZBkZhlx80Ik4V0sdmneA)"><linearGradient id="_lgradient_11" x1="0.5" y1="-0.0032111741144565525" x2="0.49999999999999983" y2="1.012865379942925" gradientTransform="matrix(460.308,0,0,544,9.846,8)" gradientUnits="userSpaceOnUse"><stop offset="0%" stop-opacity="1" style="stop-color:rgb(26,109,255)"/><stop offset="100%" stop-opacity="1" style="stop-color:rgb(200,34,255)"/></linearGradient><path d=" M 454.849 82.518 L 395.636 23.305 C 385.858 13.473 372.553 7.962 358.686 8 L 62.154 8 C 33.311 8 9.846 31.465 9.846 60.308 L 9.846 436.923 C 9.846 465.766 33.311 489.231 62.154 489.231 L 240 489.231 L 240 520.615 C 240 537.919 254.081 552 271.385 552 L 355.077 552 C 372.38 552 386.461 537.919 386.461 520.615 L 386.461 489.231 L 417.846 489.231 C 446.689 489.231 470.154 465.766 470.154 436.923 L 470.154 119.468 C 470.154 105.502 464.714 92.383 454.849 82.518 Z  M 365.538 29.76 L 365.538 123.077 C 365.538 128.855 360.855 133.539 355.077 133.539 L 342.69 133.539 C 343.862 130.254 344.615 126.77 344.615 123.077 L 344.615 28.923 L 358.686 28.923 C 361.009 28.923 363.289 29.248 365.538 29.76 Z  M 114.462 28.923 L 135.385 28.923 L 135.385 123.077 C 135.385 126.77 136.138 130.254 137.31 133.539 L 124.923 133.539 C 119.145 133.539 114.462 128.855 114.462 123.077 L 114.462 28.923 Z  M 156.308 123.077 L 156.308 28.923 L 323.692 28.923 L 323.692 123.077 C 323.692 128.855 319.008 133.539 313.231 133.539 L 166.769 133.539 C 160.992 133.539 156.308 128.855 156.308 123.077 Z  M 304.223 231.657 C 306.985 227.065 311.442 226.563 313.231 226.563 C 315.02 226.563 319.487 227.065 322.238 231.657 L 334.938 252.831 C 321.551 260.781 304.89 260.781 291.502 252.831 L 304.223 231.657 Z  M 280.769 270.742 C 290.561 276.705 301.608 280 313.231 280 C 324.854 280 335.901 276.705 345.693 270.742 L 365.026 302.974 C 362.41 313.529 340.326 321.846 313.231 321.846 C 286.135 321.846 264.051 313.529 261.436 302.963 L 280.769 270.742 Z  M 302.769 468.308 L 302.769 342.319 C 306.211 342.55 309.674 342.769 313.231 342.769 C 316.725 342.769 320.219 342.612 323.692 342.372 L 323.692 468.308 L 302.769 468.308 Z  M 240 384.615 C 222.697 384.615 208.615 370.534 208.615 353.231 C 208.615 335.927 222.697 321.846 240 321.846 L 240 384.615 Z  M 242.992 293.035 C 241.538 295.441 240.785 298.151 240.387 300.923 L 240 300.923 C 240 301.551 240.073 302.273 240.115 302.974 C 240.105 303.267 240 303.539 240 303.821 L 240 300.923 C 211.158 300.923 187.692 324.388 187.692 353.231 C 187.692 382.073 211.158 405.539 240 405.539 L 240 426.462 L 114.462 426.462 L 114.462 290.462 C 114.462 284.684 119.145 280 124.923 280 L 250.817 280 L 242.992 293.035 Z  M 114.462 468.308 L 114.462 447.385 L 240 447.385 L 240 468.308 L 114.462 468.308 Z  M 355.077 531.077 L 271.385 531.077 C 265.607 531.077 260.923 526.393 260.923 520.615 L 260.923 331.45 C 262.503 332.318 264.009 333.207 265.83 334.023 C 270.59 336.137 276.082 337.769 281.846 339.139 L 281.846 489.231 L 344.615 489.231 L 344.615 339.275 C 351.899 337.637 358.934 335.044 365.538 331.565 L 365.538 520.615 C 365.538 526.393 360.855 531.077 355.077 531.077 Z  M 449.231 436.923 C 449.231 454.226 435.149 468.308 417.846 468.308 L 386.461 468.308 L 386.461 303.821 C 386.461 303.455 386.336 303.11 386.315 302.733 C 386.346 302.126 386.461 301.551 386.461 300.923 L 386.064 300.923 C 385.745 298.151 384.862 295.474 383.469 293.056 L 340.169 220.892 C 334.525 211.391 324.272 205.588 313.22 205.64 C 303.658 205.64 295.08 210.012 289.159 217.231 L 93.539 217.231 L 93.539 238.154 L 275.925 238.154 L 263.371 259.077 L 124.923 259.077 C 107.62 259.077 93.539 273.158 93.539 290.462 L 93.539 468.308 L 62.154 468.308 C 44.851 468.308 30.769 454.226 30.769 436.923 L 30.769 60.308 C 30.769 43.004 44.851 28.923 62.154 28.923 L 93.539 28.923 L 93.539 123.077 C 93.539 140.38 107.62 154.462 124.923 154.462 L 355.077 154.462 C 372.38 154.462 386.461 140.38 386.461 123.077 L 386.461 43.716 L 440.056 97.31 C 445.893 103.148 449.231 111.214 449.231 119.468 L 449.231 436.923 Z " fill="url(#_lgradient_11)"/></g></svg>