<?xml version="1.0" encoding="UTF-8" standalone="no"?><!-- Generator: Gravit.io --><svg xmlns="http://www.w3.org/2000/svg" xmlns:xlink="http://www.w3.org/1999/xlink" style="isolation:isolate" viewBox="0 0 370 400" width="370pt" height="400pt"><defs><clipPath id="_clipPath_DoLNF3PaBIw2Xpf1m6Lf1KDDHFuzemBd"><rect width="370" height="400"/></clipPath></defs><g clip-path="url(#_clipPath_DoLNF3PaBIw2Xpf1m6Lf1KDDHFuzemBd)"><g><linearGradient id="_lgradient_0" x1="0.5" y1="-0.11112345816201796" x2="0.4999999999999998" y2="1.0648960995666183" gradientTransform="matrix(68.207,0,0,68.185,63.885,63.623)" gradientUnits="userSpaceOnUse"><stop offset="0%" stop-opacity="1" style="stop-color:rgb(109,199,255)"/><stop offset="100%" stop-opacity="1" style="stop-color:rgb(230,171,255)"/></linearGradient><path d=" M 132.093 63.623 C 94.208 63.623 63.885 93.923 63.885 131.808 L 132.093 131.808 L 132.093 63.623 Z " fill="url(#_lgradient_0)"/><linearGradient id="_lgradient_1" x1="0.48123365636056004" y1="-0.18189509306260573" x2="0.5389170896785113" y2="1.9142055068451376" gradientTransform="matrix(197.03,0,0,197.03,33.57,33.308)" gradientUnits="userSpaceOnUse"><stop offset="0%" stop-opacity="1" style="stop-color:rgb(26,109,255)"/><stop offset="100%" stop-opacity="1" style="stop-color:rgb(200,34,255)"/></linearGradient><path d=" M 132.085 33.308 C 77.766 33.308 33.57 77.496 33.57 131.823 C 33.57 186.149 77.766 230.338 132.085 230.338 C 186.404 230.338 230.6 186.149 230.6 131.823 C 230.6 77.496 186.404 33.308 132.085 33.308 Z  M 132.085 215.176 C 86.124 215.176 48.731 177.784 48.731 131.823 C 48.731 85.861 86.124 48.469 132.085 48.469 C 178.047 48.469 215.439 85.861 215.439 131.823 C 215.439 177.784 178.047 215.176 132.085 215.176 Z " fill="url(#_lgradient_1)"/><linearGradient id="_lgradient_2" x1="0.4814395160147797" y1="-0.017519213513930654" x2="0.5102875331547986" y2="1.0307408013086612" gradientTransform="matrix(363.738,0,0,394,3.262,3)" gradientUnits="userSpaceOnUse"><stop offset="0%" stop-opacity="1" style="stop-color:rgb(26,109,255)"/><stop offset="100%" stop-opacity="1" style="stop-color:rgb(200,34,255)"/></linearGradient><path d=" M 357.657 325.466 L 291.344 250.727 C 285.896 244.575 276.228 243.756 269.788 248.886 L 250.952 263.835 L 219.697 225.996 C 244.981 202.462 260.908 169.01 260.908 131.823 C 260.908 60.789 203.119 3 132.085 3 C 61.051 3 3.262 60.789 3.262 131.823 C 3.262 202.856 61.051 260.645 132.085 260.645 C 160.491 260.645 186.692 251.296 208.013 235.657 L 239.071 273.261 L 221.144 287.483 C 217.898 290.019 215.85 293.79 215.492 297.894 C 215.131 301.958 216.476 305.99 219.204 309.024 L 285.525 383.77 C 293.269 392.499 304.384 397 315.568 397 C 324.653 397.04 333.485 394.003 340.625 388.385 L 352.801 378.732 C 360.984 372.231 365.977 363.063 366.863 352.925 C 367.736 342.891 364.402 332.946 357.657 325.466 Z  M 18.416 131.823 C 18.416 69.146 69.409 18.154 132.085 18.154 C 194.761 18.154 245.754 69.146 245.754 131.823 C 245.754 194.499 194.769 245.492 132.085 245.492 C 69.401 245.492 18.416 194.499 18.416 131.823 Z  M 311.226 295.969 L 262.226 334.861 L 251.035 322.314 L 300.073 283.399 L 311.226 295.969 Z  M 279.221 260.752 C 279.33 260.676 279.46 260.639 279.592 260.645 C 279.759 260.645 279.933 260.698 280.009 260.782 L 290.003 272.049 L 240.935 310.986 L 230.57 299.363 L 279.221 260.752 Z  M 343.375 366.859 L 331.199 376.512 C 320.887 384.702 305.483 383.445 296.86 373.716 L 272.319 346.196 L 321.296 307.327 L 346.322 335.528 C 350.286 339.902 352.256 345.725 351.763 351.606 C 351.247 357.562 348.262 362.979 343.375 366.859 Z " fill="url(#_lgradient_2)"/></g></g></svg>