<?xml version="1.0" encoding="UTF-8" standalone="no"?><!-- Generator: Gravit.io --><svg xmlns="http://www.w3.org/2000/svg" xmlns:xlink="http://www.w3.org/1999/xlink" style="isolation:isolate" viewBox="0 0 480 480" width="480pt" height="480pt"><defs><clipPath id="_clipPath_iY0LteVXikI9z9y2iJjaZSbwS1mE1Agw"><rect width="480" height="480"/></clipPath></defs><g clip-path="url(#_clipPath_iY0LteVXikI9z9y2iJjaZSbwS1mE1Agw)"><path d=" M 108.054 11 L 108.054 88 L 146.554 88 L 146.554 11 L 108.054 11 Z  M 339.054 11 L 339.054 88 L 377.554 88 L 377.554 11 L 339.054 11 Z  M 31.054 68.75 C 20.466 68.75 11.804 77.412 11.804 88 L 11.804 145.75 C 11.804 156.337 20.466 165 31.054 165 L 31.054 473 L 454.554 473 L 454.554 165 C 465.141 165 473.804 156.337 473.804 145.75 L 473.804 88 C 473.804 77.412 465.141 68.75 454.554 68.75 L 396.804 68.75 L 396.804 107.25 L 319.804 107.25 L 319.804 68.75 L 165.804 68.75 L 165.804 107.25 L 88.804 107.25 L 88.804 68.75 L 31.054 68.75 Z  M 69.554 165 L 416.054 165 L 416.054 434.5 L 69.554 434.5 L 69.554 165 Z  M 108.054 203.5 L 108.054 242 L 146.554 242 L 146.554 203.5 L 108.054 203.5 Z  M 185.054 203.5 L 185.054 242 L 223.554 242 L 223.554 203.5 L 185.054 203.5 Z  M 262.054 203.5 L 262.054 242 L 300.554 242 L 300.554 203.5 L 262.054 203.5 Z  M 339.054 203.5 L 339.054 242 L 377.554 242 L 377.554 203.5 L 339.054 203.5 Z  M 108.054 280.5 L 108.054 319 L 146.554 319 L 146.554 280.5 L 108.054 280.5 Z  M 185.054 280.5 L 185.054 319 L 223.554 319 L 223.554 280.5 L 185.054 280.5 Z  M 262.054 280.5 L 262.054 319 L 300.554 319 L 300.554 280.5 L 262.054 280.5 Z  M 339.054 280.5 L 339.054 319 L 377.554 319 L 377.554 280.5 L 339.054 280.5 Z  M 108.054 357.5 L 108.054 396 L 146.554 396 L 146.554 357.5 L 108.054 357.5 Z  M 185.054 357.5 L 185.054 396 L 223.554 396 L 223.554 357.5 L 185.054 357.5 Z  M 262.054 357.5 L 262.054 396 L 300.554 396 L 300.554 357.5 L 262.054 357.5 Z  M 339.054 357.5 L 339.054 396 L 377.554 396 L 377.554 357.5 L 339.054 357.5 Z " fill="rgb(0,0,0)"/></g></svg>