<?xml version="1.0" encoding="UTF-8" standalone="no"?><!-- Generator: Gravit.io --><svg xmlns="http://www.w3.org/2000/svg" xmlns:xlink="http://www.w3.org/1999/xlink" style="isolation:isolate" viewBox="0 0 480 480" width="480pt" height="480pt"><defs><clipPath id="_clipPath_WxCkcu3BO2Hl1sWdaWPanaAznSWVefqt"><rect width="480" height="480"/></clipPath></defs><g clip-path="url(#_clipPath_WxCkcu3BO2Hl1sWdaWPanaAznSWVefqt)"><g><linearGradient id="_lgradient_3" x1="0.1464466094067262" y1="0.14644660940672627" x2="0.8535533905932737" y2="0.8535533905932737" gradientTransform="matrix(471,0,0,466.588,4,3)" gradientUnits="userSpaceOnUse"><stop offset="2.608695652173913%" stop-opacity="1" style="stop-color:rgb(106,106,106)"/><stop offset="97.82608695652173%" stop-opacity="1" style="stop-color:rgb(0,0,0)"/></linearGradient><path d=" M 191.58 3 C 156.958 3.63 131.678 14.252 116.314 34.461 C 98.119 58.423 94.817 94.626 106.314 142.363 C 102.089 147.537 98.891 155.403 100.142 165.883 C 102.644 186.609 110.688 195.143 117.49 198.511 C 120.727 214.796 129.693 233.095 138.367 241.732 L 138.367 246.144 C 138.442 255.703 138.405 263.973 137.483 274.66 C 131.716 287.897 112.57 295.64 90.442 304.362 C 53.694 318.794 8.008 336.65 4.593 393.739 L 4 403.731 L 259.497 403.731 C 277.391 442.502 316.68 469.588 362.102 469.588 C 424.356 469.588 475 418.944 475 356.69 C 475 294.436 424.356 243.792 362.102 243.792 C 323.435 243.792 289.264 263.163 268.905 292.893 C 262.178 289.469 256.703 285.762 252.733 281.425 C 250.877 279.446 249.383 277.156 248.32 274.66 C 247.408 263.973 247.662 255.656 247.737 246.144 L 247.737 241.732 C 256.148 233.133 264.822 214.796 268.021 198.52 C 274.823 195.096 282.867 186.609 285.369 165.874 C 286.621 155.619 283.601 147.838 279.489 142.655 C 284.965 124.026 296.142 75.81 276.836 44.753 C 268.755 31.742 256.515 23.547 240.38 20.349 C 231.489 9.144 214.441 3 191.58 3 Z  M 456.184 356.69 C 456.184 408.585 268.021 408.585 268.021 356.69 C 268.021 304.795 456.184 304.795 456.184 356.69 Z  M 305.653 347.282 L 305.653 366.098 L 305.653 347.282 Z  M 253.316 326.998 C 252.695 329.237 252.036 331.476 251.557 333.753 C 252.027 331.438 252.695 329.237 253.325 326.998 L 253.316 326.998 Z " fill="url(#_lgradient_3)"/><circle vector-effect="non-scaling-stroke" cx="362.1022511658191" cy="356.6396541386678" r="37.43657990855638" fill="rgb(0,0,0)"/></g></g></svg>