<?xml version="1.0" encoding="UTF-8" standalone="no"?><!-- Generator: Gravit.io --><svg xmlns="http://www.w3.org/2000/svg" xmlns:xlink="http://www.w3.org/1999/xlink" style="isolation:isolate" viewBox="0 0 358 422" width="358pt" height="422pt"><defs><clipPath id="_clipPath_4YEH65hFFIANt65KZ0PWS5q91eDYUETl"><rect width="358" height="422"/></clipPath></defs><g clip-path="url(#_clipPath_4YEH65hFFIANt65KZ0PWS5q91eDYUETl)"><rect width="358" height="422" style="fill:rgb(0,0,0)" fill-opacity="0"/><linearGradient id="_lgradient_8" x1="0.5000000000000009" y1="-6.439059272207206" x2="0.49999999999999933" y2="2.1188622278722384" gradientTransform="matrix(75.741,0,0,50.631,245.719,321.683)" gradientUnits="userSpaceOnUse"><stop offset="0%" stop-opacity="1" style="stop-color:rgb(26,109,255)"/><stop offset="100%" stop-opacity="1" style="stop-color:rgb(200,34,255)"/></linearGradient><path d=" M 275.536 356.214 L 257.095 337.774 L 245.719 349.15 L 264.151 367.583 C 267.193 370.632 271.24 372.314 275.544 372.314 C 279.848 372.314 283.895 370.632 286.928 367.591 L 321.46 333.059 L 310.084 321.683 L 275.536 356.214 Z " fill="url(#_lgradient_8)"/><linearGradient id="_lgradient_9" x1="0.5" y1="-0.01284640089232493" x2="0.49999999999999983" y2="1.0228465932037156" gradientTransform="matrix(354.007,0,0,418.364,1.993,1.041)" gradientUnits="userSpaceOnUse"><stop offset="0%" stop-opacity="1" style="stop-color:rgb(26,109,255)"/><stop offset="100%" stop-opacity="1" style="stop-color:rgb(200,34,255)"/></linearGradient><path d=" M 284.78 274.648 C 271.826 253.633 253.97 236.072 232.741 223.47 C 242.461 212.648 249.816 199.916 254.336 186.09 Q 263.73 134.912 259.453 105.634 C 251.538 51.452 212.531 1.041 154.86 1.041 C 97.189 1.041 54.431 51.035 50.267 105.634 Q 48.203 132.696 55.384 186.09 C 59.899 199.921 67.254 212.656 76.978 223.478 C 30.459 250.938 1.993 300.37 1.993 355.04 L 1.993 363.085 L 213.046 363.085 C 220.391 395.284 249.203 419.405 283.59 419.405 C 323.52 419.405 356 386.925 356 346.994 C 356 307.466 324.155 275.292 284.78 274.648 Z  M 154.86 258.492 C 179.745 258.492 202.602 249.723 220.576 235.16 C 225.54 237.888 230.32 240.873 234.873 244.155 C 212.88 263.839 184.375 274.679 154.86 274.584 C 125.357 274.619 96.88 263.764 74.886 244.099 C 79.448 240.83 84.2 237.837 89.119 235.136 C 107.692 250.254 130.912 258.504 154.86 258.492 Z  M 122.307 23.408 C 127.887 21.195 133.091 19.713 138.696 18.677 C 80.892 45.709 106.602 88.634 67.911 89.462 C 68.965 83.79 70.566 78.319 72.642 73.073 C 91.973 39.615 98.718 32.762 122.307 23.408 Z  M 237.166 73.315 C 239.178 78.416 240.739 83.734 241.777 89.245 C 239.628 89.414 237.472 89.535 235.316 89.535 C 193.68 89.535 226.608 49.588 155.27 17.148 C 160.95 17.172 166.502 17.752 171.892 18.806 C 210.541 30.196 236.547 73.331 237.166 73.315 Z  M 66.358 105.626 C 103.328 105.626 196.93 105.626 235.316 105.626 C 237.995 105.626 240.674 105.481 243.345 105.264 L 243.361 105.626 L 243.361 153.9 C 243.361 202.696 203.656 242.401 154.86 242.401 C 106.063 242.401 66.358 202.696 66.358 153.9 L 66.358 105.626 Z  M 18.31 346.994 C 20.278 311.555 36.047 278.295 62.239 254.341 C 87.582 277.729 120.199 290.675 154.86 290.675 C 189.673 290.675 222.145 277.77 247.433 254.381 C 254.674 261.043 261.174 268.485 266.871 276.611 C 234.986 284.19 211.179 312.824 211.179 346.994 L 18.31 346.994 Z  M 283.59 403.313 C 252.542 403.313 227.27 378.042 227.27 346.994 C 227.27 315.946 252.542 290.675 283.59 290.675 C 314.638 290.675 339.909 315.946 339.909 346.994 C 339.909 378.042 314.638 403.313 283.59 403.313 Z " fill="url(#_lgradient_9)"/></g></svg>