<?xml version="1.0" encoding="UTF-8" standalone="no"?><!-- Generator: Gravit.io --><svg xmlns="http://www.w3.org/2000/svg" xmlns:xlink="http://www.w3.org/1999/xlink" style="isolation:isolate" viewBox="0 0 480 480" width="480pt" height="480pt"><defs><clipPath id="_clipPath_TtcrqfD5xm3UkOW52wauJkhNCkdwy63I"><rect width="480" height="480"/></clipPath></defs><g clip-path="url(#_clipPath_TtcrqfD5xm3UkOW52wauJkhNCkdwy63I)"><path d=" M 192.634 435.38 C 192.634 449.362 182.881 460.669 170.822 460.669 L 38.38 460.669 C 26.321 460.669 16.568 449.362 16.568 435.38 L 16.568 38.906 C 16.568 28.085 24.223 19.21 33.556 19.21 L 175.646 19.21 C 184.979 19.21 192.634 28.085 192.634 38.906 L 192.634 88.389 L 209.202 88.389 L 209.202 38.906 C 209.202 17.386 194.102 0 175.646 0 L 33.556 0 C 14.995 0 0 17.508 0 38.906 L 0 435.502 C 0 460.061 17.198 480 38.38 480 L 170.822 480 C 192.005 480 209.202 460.061 209.202 435.502 L 209.202 411.064 L 192.634 411.064 L 192.634 435.38 L 192.634 435.38 Z  M 448.919 93.374 L 149.115 93.374 C 131.289 93.374 116.818 110.152 116.818 130.821 L 116.818 367.052 C 116.818 387.72 131.289 404.498 149.115 404.498 L 290.681 404.498 L 290.681 457.872 L 219.479 457.872 L 219.479 477.082 L 378.451 477.082 L 378.451 457.872 L 307.249 457.872 L 307.249 404.498 L 448.815 404.498 C 466.641 404.498 481.112 387.72 481.112 367.052 L 481.112 130.821 C 481.217 110.152 466.746 93.374 448.919 93.374 L 448.919 93.374 Z  M 464.649 367.052 C 464.649 377.143 457.623 385.289 448.919 385.289 L 149.115 385.289 C 140.412 385.289 133.386 377.143 133.386 367.052 L 133.386 130.821 C 133.386 120.729 140.412 112.584 149.115 112.584 L 448.919 112.584 C 457.623 112.584 464.649 120.729 464.649 130.821 L 464.649 367.052 L 464.649 367.052 Z  M 145.55 352.219 L 452.485 352.219 L 452.485 141.641 L 145.55 141.641 L 145.55 352.219 Z  M 153.834 151.246 L 444.201 151.246 L 444.201 342.736 L 153.834 342.736 L 153.834 151.246 Z  M 299.07 138.723 C 304.733 138.723 309.347 133.374 309.347 126.809 C 309.347 120.243 304.733 114.894 299.07 114.894 C 293.407 114.894 288.793 120.243 288.793 126.809 C 288.793 133.374 293.407 138.723 299.07 138.723 Z  M 299.07 124.62 C 300.119 124.62 301.062 125.593 301.062 126.93 C 301.062 128.267 300.223 129.24 299.07 129.24 C 297.916 129.24 297.078 128.267 297.078 126.93 C 297.078 125.593 297.916 124.62 299.07 124.62 Z  M 299.07 355.988 C 292.673 355.988 287.43 362.067 287.43 369.483 C 287.43 376.9 292.673 382.979 299.07 382.979 C 305.467 382.979 310.71 376.9 310.71 369.483 C 310.605 361.945 305.467 355.988 299.07 355.988 Z  M 299.07 373.252 C 297.182 373.252 295.714 371.55 295.714 369.362 C 295.714 367.173 297.182 365.471 299.07 365.471 C 300.957 365.471 302.426 367.173 302.426 369.362 C 302.426 371.55 300.853 373.252 299.07 373.252 Z  M 93.328 424.195 C 93.328 431.611 98.571 437.69 104.968 437.69 C 111.365 437.69 116.608 431.611 116.608 424.195 C 116.608 416.778 111.365 410.699 104.968 410.699 C 98.467 410.821 93.328 416.778 93.328 424.195 Z  M 108.219 424.195 C 108.219 426.383 106.751 428.085 104.863 428.085 C 102.976 428.085 101.508 426.383 101.508 424.195 C 101.508 422.006 102.976 420.304 104.863 420.304 C 106.751 420.304 108.219 422.128 108.219 424.195 Z  M 167.886 87.052 L 167.886 58.116 L 38.38 58.116 L 38.38 114.529 L 111.784 114.529 L 111.784 104.924 L 46.664 104.924 L 46.664 67.72 L 159.602 67.72 L 159.602 87.052 L 167.886 87.052 L 167.886 87.052 Z " fill="rgb(0,0,0)"/></g></svg>