<?xml version="1.0" encoding="UTF-8" standalone="no"?><!-- Generator: Gravit.io --><svg xmlns="http://www.w3.org/2000/svg" xmlns:xlink="http://www.w3.org/1999/xlink" style="isolation:isolate" viewBox="0 0 480 480" width="480pt" height="480pt"><defs><clipPath id="_clipPath_vkNuHbgNarCTUQKuOqVDPebTSWVtTZb0"><rect width="480" height="480"/></clipPath></defs><g clip-path="url(#_clipPath_vkNuHbgNarCTUQKuOqVDPebTSWVtTZb0)"><path d=" M 184.615 0 C 113.446 0 55.385 55.911 55.385 124.444 C 55.441 165.79 76.818 204.408 112.431 227.502 C 46.449 254.649 0 317.778 0 391.111 L 36.923 391.111 C 36.923 351.324 53.723 315.484 80.991 289.724 L 125.262 343.893 L 194.862 299.236 L 174.369 269.653 L 133.2 296.107 L 110.4 268.196 C 132.919 255.529 158.536 248.865 184.615 248.889 C 255.785 248.889 313.846 192.978 313.846 124.444 C 313.846 55.911 255.785 0 184.615 0 Z  M 184.615 35.556 C 235.809 35.556 276.923 75.147 276.923 124.444 C 276.923 173.742 235.809 213.333 184.615 213.333 C 133.422 213.333 92.308 173.742 92.308 124.444 C 92.308 75.147 133.422 35.556 184.615 35.556 Z  M 332.308 231.111 L 332.308 268.622 C 320.833 270.92 309.933 275.353 300.222 281.671 L 272.382 255.004 L 246.351 280.142 L 274.043 306.738 C 267.416 316.124 262.763 326.669 260.345 337.778 L 221.538 337.778 L 221.538 373.333 L 260.345 373.333 C 262.763 384.442 267.416 394.987 274.043 404.373 L 246.351 430.969 L 272.382 456.107 L 300.222 429.44 C 309.822 435.627 320.622 440.213 332.308 442.507 L 332.308 480 L 369.231 480 L 369.231 442.489 C 380.706 440.191 391.605 435.758 401.317 429.44 L 429.157 456.107 L 455.188 430.969 L 427.495 404.373 C 434.122 394.987 438.776 384.442 441.194 373.333 L 480 373.333 L 480 337.778 L 441.194 337.778 C 438.776 326.669 434.122 316.124 427.495 306.738 L 455.188 280.142 L 429.157 255.004 L 401.317 281.671 C 391.606 275.346 380.707 270.908 369.231 268.604 L 369.231 231.111 L 332.308 231.111 Z  M 350.769 302.222 C 381.563 302.222 406.154 325.902 406.154 355.556 C 406.154 385.209 381.563 408.889 350.769 408.889 C 319.975 408.889 295.385 385.209 295.385 355.556 C 295.385 325.902 319.975 302.222 350.769 302.222 Z  M 350.769 337.778 C 340.615 337.778 332.308 345.778 332.308 355.556 C 332.308 365.333 340.615 373.333 350.769 373.333 C 360.923 373.333 369.231 365.333 369.231 355.556 C 369.231 345.778 360.923 337.778 350.769 337.778 Z " fill="rgb(0,0,0)"/></g></svg>